<svg xmlns="http://www.w3.org/2000/svg" width="225.965" height="38.14" viewBox="0 0 225.965 38.14">
  <g id="Group_3" data-name="Group 3" transform="translate(-95.957 -163.817)">
    <g id="Group_2" data-name="Group 2" transform="translate(149.605 170.224)">
      <g id="Group_1" data-name="Group 1">
        <path id="Path_1" data-name="Path 1" d="M211.256,201.423h5.455a9.576,9.576,0,0,1-3.808,5.223,10.682,10.682,0,0,1-6.175,1.981h-.335a1.354,1.354,0,0,1-.334-.026,11.126,11.126,0,0,1-3.705-.875,10.146,10.146,0,0,1-3.139-2.084,10.3,10.3,0,0,1-2.444-3.6,11.437,11.437,0,0,1-.823-4.246,10.087,10.087,0,0,1,3.164-7.513,10.731,10.731,0,0,1,13.792-1.029,9.556,9.556,0,0,1,3.808,5.3l-5.455-.051a5.465,5.465,0,0,0-1.956-1.956,5.666,5.666,0,0,0-2.7-.643,5.525,5.525,0,0,0-4.194,1.7,5.889,5.889,0,0,0-1.621,4.22,5.819,5.819,0,0,0,6.073,6.073,5.215,5.215,0,0,0,4.4-2.47Z" transform="translate(-195.947 -181.07)" fill="#275786"/>
        <path id="Path_2" data-name="Path 2" d="M250.184,187.076a10.134,10.134,0,0,1,7.488,3.217,10.594,10.594,0,0,1,3.062,7.59,10.161,10.161,0,0,1-3.165,7.565,10.528,10.528,0,0,1-7.616,3.088,10.327,10.327,0,0,1-7.514-3.139,10.716,10.716,0,0,1,.051-15.206,10.54,10.54,0,0,1,7.693-3.114Zm-.643,4.786a2.539,2.539,0,0,0-.437.051,6.39,6.39,0,0,0-1.775.643,5.563,5.563,0,0,0-1.492,1.132,5.467,5.467,0,0,0-1.261,1.9,6.088,6.088,0,0,0-.412,2.264,5.89,5.89,0,0,0,1.673,4.194,5.449,5.449,0,0,0,4.143,1.775,5.606,5.606,0,0,0,4.246-1.724,5.9,5.9,0,0,0,1.672-4.271,5.987,5.987,0,0,0-1.7-4.271,5.639,5.639,0,0,0-4.22-1.8A.981.981,0,0,1,249.54,191.862Z" transform="translate(-216.04 -181.003)" fill="#275786"/>
        <path id="Path_3" data-name="Path 3" d="M303.928,202.646h-4.452v-2.727H299.4a6.535,6.535,0,0,1-2.779,2.5,8.925,8.925,0,0,1-3.705.9h-.231a9.237,9.237,0,0,1-4.065-.9,9.967,9.967,0,0,1-3.191-2.444,11.711,11.711,0,0,1-2.007-3.371,10.613,10.613,0,0,1-.72-3.885,11.33,11.33,0,0,1,.694-3.937,10.893,10.893,0,0,1,2.033-3.448,10.434,10.434,0,0,1,3.088-2.341,9.443,9.443,0,0,1,3.782-1.029,1.058,1.058,0,0,1,.283-.026h.592a9.178,9.178,0,0,1,3.268.772,7.289,7.289,0,0,1,2.676,1.955v-8.9h4.837v26.888ZM299.4,192.534a5.6,5.6,0,0,0-1.775-4.194,5.845,5.845,0,0,0-4.245-1.724,5.525,5.525,0,0,0-4.066,1.775,5.7,5.7,0,0,0-1.75,4.091,6.2,6.2,0,0,0,1.673,4.323,5.491,5.491,0,0,0,4.219,1.827,5.711,5.711,0,0,0,4.246-1.775,5.847,5.847,0,0,0,1.724-4.246v-.077Z" transform="translate(-236.154 -175.758)" fill="#275786"/>
        <path id="Path_4" data-name="Path 4" d="M332.568,200.056a5.25,5.25,0,0,0,2.007,2.831,5.587,5.587,0,0,0,3.294,1.055,7.175,7.175,0,0,0,2.6-.463,4.746,4.746,0,0,0,1.9-1.261l5.352-.026a8.944,8.944,0,0,1-3.705,4.606,10.643,10.643,0,0,1-13.508-1.184,10.119,10.119,0,0,1-3.114-7.487,10.645,10.645,0,0,1,3.088-7.668,10.16,10.16,0,0,1,7.616-3.191,9.739,9.739,0,0,1,7.333,3.165,10.391,10.391,0,0,1,3.011,7.384c0,.309-.026.618-.052.927s-.077.592-.129.9a1.13,1.13,0,0,0-.052.258c0,.077-.026.154-.026.206H332.568Zm11.012-4.3a5.233,5.233,0,0,0-2.11-2.8,6.048,6.048,0,0,0-3.371-1.029h-.308a6.654,6.654,0,0,0-3.268,1.132,4.841,4.841,0,0,0-2.032,2.676h11.09Z" transform="translate(-256.869 -181.092)" fill="#275786"/>
        <path id="Path_5" data-name="Path 5" d="M372.476,187.79h4.477v1.853h.077a5.548,5.548,0,0,1,2.213-1.75,8.335,8.335,0,0,1,2.856-.721h.695a.965.965,0,0,1,.283.026,8.006,8.006,0,0,1,2.83.772,7.821,7.821,0,0,1,2.341,1.7l.283.283a1.629,1.629,0,0,1,.231.309,7.605,7.605,0,0,1,1.39,3.5,30.473,30.473,0,0,1,.206,3.783v10.395h-4.837V197.49c0-.335,0-.669-.026-1.03a9.642,9.642,0,0,0-.258-1.544,5.807,5.807,0,0,0-.54-1.364,3.3,3.3,0,0,0-1.287-1.158,4.486,4.486,0,0,0-1.7-.515h-.463a1.154,1.154,0,0,0-.283.026,4.49,4.49,0,0,0-1.647.566,3.227,3.227,0,0,0-1.235,1.184,4.332,4.332,0,0,0-.54,1.364,6.609,6.609,0,0,0-.206,1.6c-.025.309-.025.643-.025.952v10.343h-4.837Z" transform="translate(-277.762 -181.048)" fill="#275786"/>
        <path id="Path_6" data-name="Path 6" d="M432.762,202.646h-4.452v-2.727h-.052a6.536,6.536,0,0,1-2.779,2.5,8.925,8.925,0,0,1-3.705.9h-.231a9.235,9.235,0,0,1-4.065-.9,9.965,9.965,0,0,1-3.191-2.444,11.707,11.707,0,0,1-2.007-3.371,10.613,10.613,0,0,1-.721-3.885,11.332,11.332,0,0,1,.695-3.937,10.891,10.891,0,0,1,2.033-3.448,10.425,10.425,0,0,1,3.088-2.341,9.443,9.443,0,0,1,3.782-1.029,1.057,1.057,0,0,1,.283-.026h.592a9.179,9.179,0,0,1,3.268.772,7.289,7.289,0,0,1,2.676,1.955v-8.9h4.837v26.888Zm-4.5-10.112a5.6,5.6,0,0,0-1.775-4.194,5.845,5.845,0,0,0-4.245-1.724,5.525,5.525,0,0,0-4.066,1.775,5.7,5.7,0,0,0-1.75,4.091,6.2,6.2,0,0,0,1.673,4.323,5.491,5.491,0,0,0,4.219,1.827,5.711,5.711,0,0,0,4.246-1.775,5.847,5.847,0,0,0,1.724-4.246v-.077Z" transform="translate(-295.876 -175.758)" fill="#275786"/>
        <path id="Path_7" data-name="Path 7" d="M467.188,187.076a10.132,10.132,0,0,1,7.487,3.217,10.591,10.591,0,0,1,3.062,7.59,10.16,10.16,0,0,1-3.165,7.565,10.529,10.529,0,0,1-7.617,3.088,10.325,10.325,0,0,1-7.513-3.139,10.715,10.715,0,0,1,.051-15.206,10.54,10.54,0,0,1,7.693-3.114Zm-.669,4.786a2.532,2.532,0,0,0-.437.051,6.391,6.391,0,0,0-1.775.643,5.575,5.575,0,0,0-1.493,1.132,5.473,5.473,0,0,0-1.261,1.9,6.1,6.1,0,0,0-.412,2.264,5.892,5.892,0,0,0,1.672,4.194,5.449,5.449,0,0,0,4.143,1.775A5.6,5.6,0,0,0,471.2,202.1a5.9,5.9,0,0,0,1.672-4.271,5.987,5.987,0,0,0-1.7-4.271,5.639,5.639,0,0,0-4.22-1.8A.907.907,0,0,1,466.519,191.862Z" transform="translate(-316.613 -181.003)" fill="#275786"/>
        <path id="Path_8" data-name="Path 8" d="M500.633,186.8h-2.367v-4.3h2.367v-6.742h4.837V182.5h2.908v4.3H505.47v15.85h-4.837Z" transform="translate(-336.061 -175.758)" fill="#275786"/>
      </g>
    </g>
    <path id="Path_9" data-name="Path 9" d="M129.873,199.248a38.757,38.757,0,0,0,9.649-9.288,17.624,17.624,0,0,0,2.959-9.6,24.088,24.088,0,0,1-3.474,7.488A37.639,37.639,0,0,1,128.69,197.7c-7.59,4.786-15.773,6.3-21.511,4.709-3.01-.746-5.558-2.032-7.05-4.168a9.16,9.16,0,0,0,.721,1.415c1.75,2.779,4.837,4.374,8.619,4.837,5.712,1,13.329-.772,20.4-5.249" transform="translate(-1.934 -7.668)" fill="#9e3836"/>
    <path id="Path_10" data-name="Path 10" d="M101.9,186.435h0a.362.362,0,0,0,.154.051c.026,0,.026,0,.051.026h0c5.79,1.518,14.023-.18,21.665-4.991a37.735,37.735,0,0,0,8.851-7.668,17.839,17.839,0,0,0-30.645,11.012,10.537,10.537,0,0,1-6.021-3.448,9.28,9.28,0,0,0,.8,1.39,10.074,10.074,0,0,0,5.146,3.628" transform="translate(0 -2.11)" fill="#275786"/>
    <path id="Path_11" data-name="Path 11" d="M103.278,188.21h0c5.815,2.033,14.589.463,22.694-4.683a37.074,37.074,0,0,0,9.674-9.109,18.9,18.9,0,0,0,3.242-10.6,24.847,24.847,0,0,1-4.426,9.237,34.08,34.08,0,0,1-9.443,8.723c-7.822,4.94-16.416,6.484-22.128,4.58a10.359,10.359,0,0,1-5.017-3.4,9.128,9.128,0,0,0,.721,1.415,9.99,9.99,0,0,0,4.683,3.834" transform="translate(-0.889 0)" fill="#4e9a62"/>
    <path id="Path_12" data-name="Path 12" d="M105.518,196.322h0c.026,0,.052.026.077.026s.052.026.077.026h0c5.815,1.827,14.358.18,22.282-4.812a36.954,36.954,0,0,0,10.035-9.829,18.838,18.838,0,0,0,2.985-9.572,24.459,24.459,0,0,1-3.654,7.8h0A33.011,33.011,0,0,1,127,189.787c-8.028,5.069-16.776,6.844-22.488,4.554a10.916,10.916,0,0,1-5.249-3.577,9.13,9.13,0,0,0,.72,1.415,10.214,10.214,0,0,0,5.532,4.143" transform="translate(-1.534 -3.867)" fill="#ce9342"/>
    <path id="Path_13" data-name="Path 13" d="M153.572,189.33a22.516,22.516,0,0,1-3.988,7.977h0a33.916,33.916,0,0,1-9.238,8.465c-6.278,3.963-13.02,5.635-18.4,5.043a17.862,17.862,0,0,0,27.12-10.4h0c2.6-3.525,4.5-7.693,4.5-11.09" transform="translate(-12.046 -11.824)" fill="#275786"/>
  </g>
</svg>
