<?xml version="1.0" encoding="UTF-8"?>
<svg version="1.1" xmlns="http://www.w3.org/2000/svg" width="400" height="400">
<path d="M0 0 C132 0 264 0 400 0 C400 132 400 264 400 400 C268 400 136 400 0 400 C0 268 0 136 0 0 Z " fill='transparent' transform="translate(0,0)"/>
<path d="M0 0 C6.19446087 3.34418568 9.63246359 6.37803399 12.2890625 13.01953125 C15.9190625 13.01953125 19.5490625 13.01953125 23.2890625 13.01953125 C23.8046875 11.98828125 24.3203125 10.95703125 24.8515625 9.89453125 C27.71758036 4.85852843 31.75121703 0.86547974 37.2890625 -0.98046875 C45.71546284 -1.79743277 52.57519035 -1.50527499 59.2890625 4.01953125 C62.6008195 7.91084572 63.89178312 10.95421917 64.2890625 16.01953125 C64.41861328 17.02306641 64.41861328 17.02306641 64.55078125 18.046875 C65.09425635 24.91881573 62.64879377 29.78597453 58.2890625 35.01953125 C52.98186805 39.79846329 46.32999417 39.62753745 39.5 39.39453125 C34.31546282 38.78903786 31.91512003 36.97389018 28.64453125 33.04296875 C26.64086642 30.46213583 24.75220578 27.9458178 23.2890625 25.01953125 C19.48793422 24.4716818 16.06468673 24.22493633 12.2890625 25.01953125 C10.10799534 27.20913488 8.83234599 29.31612561 7.41015625 32.05078125 C7.04019531 32.70046875 6.67023438 33.35015625 6.2890625 34.01953125 C5.6290625 34.01953125 4.9690625 34.01953125 4.2890625 34.01953125 C3.9590625 35.00953125 3.6290625 35.99953125 3.2890625 37.01953125 C0.2265625 38.70703125 0.2265625 38.70703125 -2.7109375 40.01953125 C-3.21219033 43.35095403 -3.21219033 43.35095403 -2.7109375 47.01953125 C-0.04200914 49.3270814 -0.04200914 49.3270814 3.2890625 51.01953125 C8.01854007 54.1725163 10.67735578 57.58878036 12.2890625 63.01953125 C12.76201519 68.14318539 13.27924044 74.16909757 11.2890625 79.01953125 C9.1796875 81.0546875 9.1796875 81.0546875 6.5390625 83.08203125 C5.24742187 84.08943359 5.24742187 84.08943359 3.9296875 85.1171875 C1.2890625 87.01953125 1.2890625 87.01953125 -1.484375 88.58984375 C-3.99301387 89.86367548 -3.99301387 89.86367548 -4.5859375 92.83203125 C-3.36578123 97.27688624 -0.93845282 98.14424207 2.890625 100.4453125 C6.79258685 103.00637215 10.45381608 106.4416102 11.921875 110.97265625 C13.1991293 118.09266958 12.34776046 123.38973327 8.85546875 129.77734375 C6.42821471 133.25176723 3.99082161 134.96299841 0.2890625 137.01953125 C-0.7009375 137.01953125 -1.6909375 137.01953125 -2.7109375 137.01953125 C-3.44886509 140.23957893 -3.62239018 142.82197595 -2.7109375 146.01953125 C-0.12479528 148.40875909 2.61236545 150.19151306 5.57421875 152.08984375 C9.19802233 154.66561205 10.53171648 157.00274035 12.2890625 161.01953125 C15.9190625 161.01953125 19.5490625 161.01953125 23.2890625 161.01953125 C24.000625 159.50359375 24.000625 159.50359375 24.7265625 157.95703125 C27.7169414 152.65639573 32.88295818 148.72258341 38.2890625 146.01953125 C38.2890625 143.04953125 38.2890625 140.07953125 38.2890625 137.01953125 C37.2371875 136.79265625 36.1853125 136.56578125 35.1015625 136.33203125 C31.09611537 135.1910857 29.00996018 133.19391188 26.2890625 130.01953125 C25.75410156 129.44847656 25.21914062 128.87742188 24.66796875 128.2890625 C22.75556879 125.14145804 22.92583337 122.73843081 22.9765625 119.08203125 C22.98042969 117.87675781 22.98429687 116.67148438 22.98828125 115.4296875 C23.27338817 112.1972415 23.90353038 109.92859669 25.2890625 107.01953125 C25.9490625 107.01953125 26.6090625 107.01953125 27.2890625 107.01953125 C27.4953125 106.46265625 27.7015625 105.90578125 27.9140625 105.33203125 C30.19430131 101.49708417 33.36880514 98.69421627 37.6015625 97.20703125 C50.93724319 96.27663492 50.93724319 96.27663492 56.67578125 100.97265625 C57.43503906 101.730625 58.19429688 102.48859375 58.9765625 103.26953125 C59.74355469 104.0171875 60.51054687 104.76484375 61.30078125 105.53515625 C64.22271934 109.18614373 65.11011934 112.69023919 65.7265625 117.26953125 C64.96441157 123.80225351 61.90727747 128.98638937 57.8515625 134.08203125 C54.93064984 136.29052619 52.90848703 136.76701326 49.2890625 137.01953125 C48.9590625 139.98953125 48.6290625 142.95953125 48.2890625 146.01953125 C48.9696875 146.22578125 49.6503125 146.43203125 50.3515625 146.64453125 C54.20545625 148.44848152 57.36694014 150.92056575 60.2890625 154.01953125 C60.2890625 154.67953125 60.2890625 155.33953125 60.2890625 156.01953125 C60.9490625 156.01953125 61.6090625 156.01953125 62.2890625 156.01953125 C64.56223614 162.55490547 65.15421785 168.88601123 63.7265625 175.70703125 C60.32672961 181.17632763 55.46170748 186.00155116 49.2890625 188.01953125 C43.4528817 188.72802057 37.9344834 188.85655417 32.91796875 185.49609375 C28.64808913 181.62555539 25.46762973 176.78738209 22.2890625 172.01953125 C16.7865262 171.32417571 16.7865262 171.32417571 12.0390625 173.64453125 C10.19989039 176.07726388 10.19989039 176.07726388 8.4140625 179.01953125 C5.16051505 183.61277471 0.70449132 186.50824879 -4.7109375 188.01953125 C-11.22134898 188.84585271 -16.32981091 187.84976546 -21.7109375 184.01953125 C-25.90967696 180.03392577 -28.59667002 176.16775979 -28.90625 170.34765625 C-28.89305085 168.98814329 -28.86933857 167.62869793 -28.8359375 166.26953125 C-28.82691406 165.57214844 -28.81789063 164.87476563 -28.80859375 164.15625 C-28.78513638 162.44386167 -28.74926854 160.73165121 -28.7109375 159.01953125 C-28.0509375 159.01953125 -27.3909375 159.01953125 -26.7109375 159.01953125 C-26.5046875 158.13265625 -26.2984375 157.24578125 -26.0859375 156.33203125 C-24.35917617 152.17210623 -22.3920406 150.56798724 -18.7109375 148.01953125 C-15.3359375 146.70703125 -15.3359375 146.70703125 -12.7109375 146.01953125 C-13.04053966 141.00418073 -13.04053966 141.00418073 -15.7109375 137.01953125 C-17.77967784 136.37700775 -17.77967784 136.37700775 -19.7109375 136.01953125 C-19.7109375 135.35953125 -19.7109375 134.69953125 -19.7109375 134.01953125 C-20.608125 133.64828125 -20.608125 133.64828125 -21.5234375 133.26953125 C-24.04680619 131.82760628 -25.21123826 130.49403499 -26.7109375 128.01953125 C-26.7109375 127.02953125 -26.7109375 126.03953125 -26.7109375 125.01953125 C-27.3709375 125.01953125 -28.0309375 125.01953125 -28.7109375 125.01953125 C-29.54118636 109.89055197 -29.54118636 109.89055197 -24.7109375 104.01953125 C-21.63439705 101.24699677 -18.4188781 98.87350155 -14.7109375 97.01953125 C-14.7109375 94.37953125 -14.7109375 91.73953125 -14.7109375 89.01953125 C-15.5771875 88.66890625 -16.4434375 88.31828125 -17.3359375 87.95703125 C-22.44759924 85.02255877 -25.47658427 80.87106109 -28.7109375 76.01953125 C-29.53705244 68.68884818 -30.07504778 60.81339986 -25.48828125 54.64453125 C-22.60589086 52.0092029 -19.18423126 50.37961367 -15.76171875 48.5390625 C-13.25305685 47.05004372 -13.25305685 47.05004372 -13.0859375 43.14453125 C-13.2921875 42.11328125 -13.4984375 41.08203125 -13.7109375 40.01953125 C-14.23042969 39.81199219 -14.74992187 39.60445312 -15.28515625 39.390625 C-20.93039762 36.89670136 -23.56218336 34.33305386 -26.7109375 29.01953125 C-26.7109375 28.35953125 -26.7109375 27.69953125 -26.7109375 27.01953125 C-27.3709375 27.01953125 -28.0309375 27.01953125 -28.7109375 27.01953125 C-29.61219927 11.6379971 -29.61219927 11.6379971 -25.1953125 5.33984375 C-23.42352353 3.76388409 -22.02555797 3.40530133 -19.7109375 3.01953125 C-19.7109375 2.35953125 -19.7109375 1.69953125 -19.7109375 1.01953125 C-13.98003463 -2.43566201 -6.17368084 -2.23284422 0 0 Z " fill="#810F3F" transform="translate(132.7109375,102.98046875)"/>
<path d="M0 0 C0.99 0.66 1.98 1.32 3 2 C3 2.66 3 3.32 3 4 C3.556875 4.20625 4.11375 4.4125 4.6875 4.625 C8.82733035 7.08652075 11.36502874 11.04754311 14 15 C17.4354941 15.89383652 20.55975037 15.85733205 24 15 C25.74010924 13.19296348 26.66718718 11.41569793 27.78515625 9.17578125 C30.25260471 4.75658898 34.24159304 1.58613565 39 0 C46.87241595 -0.71567418 52.10026347 0.36994513 58.6875 4.8125 C62.46358176 8.38446924 64.77246799 11.43404437 65.53125 16.65625 C65.5209375 17.9246875 65.510625 19.193125 65.5 20.5 C65.51546875 22.40265625 65.51546875 22.40265625 65.53125 24.34375 C64.79404826 29.41743259 62.74846753 32.42939961 58.96484375 35.828125 C58.29582031 36.29734375 57.62679687 36.7665625 56.9375 37.25 C55.93009766 37.96929687 55.93009766 37.96929687 54.90234375 38.703125 C53.27520508 39.81238586 51.63853497 40.90764335 50 42 C49.42251197 43.96361864 49.42251197 43.96361864 49.3125 46.125 C49.209375 47.40375 49.10625 48.6825 49 50 C49.804375 50.1546875 49.804375 50.1546875 50.625 50.3125 C57.79228273 52.38723974 60.97404935 55.96107403 65 62 C66.87524172 68.75087018 66.40450223 74.56918887 63.41015625 80.84765625 C60.44343642 85.37580758 56.08221797 88.30592734 51 90 C43.53032524 90.67503727 37.22597561 90.48570291 31 86 C27.66462919 83.14111074 27.03866197 80.23454496 26 76 C21.71 75.34 17.42 74.68 13 74 C12.34 75.98 11.68 77.96 11 80 C7.98103261 84.68303676 4.37459799 88.30799693 -1 90 C-8.57019394 90.64649039 -15.56405967 90.86328361 -21.625 85.8125 C-27.23230531 79.17227003 -28.72876744 74.91384832 -28.45703125 66.16796875 C-27.64630117 60.54829276 -25.05325365 57.05325365 -21.125 53.125 C-12.97023971 48.80777396 -5.09802291 49.45513167 3.4765625 51.95703125 C7.41944053 53.58667279 8.73555841 55.39104621 11 59 C11.5878125 60.6396875 11.5878125 60.6396875 12.1875 62.3125 C13.70672098 65.21236322 13.70672098 65.21236322 16.40625 65.59765625 C18.94956592 65.85127343 21.44485049 65.9904122 24 66 C24.268125 65.278125 24.53625 64.55625 24.8125 63.8125 C26.77987604 59.15292517 29.04638343 55.23477719 33 52 C34.32 52 35.64 52 37 52 C37 51.34 37 50.68 37 50 C37.66 49.67 38.32 49.34 39 49 C39 46.36 39 43.72 39 41 C37.96875 40.690625 36.9375 40.38125 35.875 40.0625 C30.87540726 37.96491119 28.42247513 33.67635309 26 29 C26 28.34 26 27.68 26 27 C22.98509443 25.99503148 20.95818308 25.89664697 17.8125 25.9375 C16.91144531 25.94652344 16.01039063 25.95554688 15.08203125 25.96484375 C14.05142578 25.98224609 14.05142578 25.98224609 13 26 C12.34 27.65 11.68 29.3 11 31 C10.34 31 9.68 31 9 31 C8.79375 31.7425 8.5875 32.485 8.375 33.25 C6.56272263 36.87455474 4.52118018 38.06680304 1 40 C-4.78832718 41.8772953 -11.07324755 41.60013601 -16.8125 39.8125 C-20.19197038 37.89084037 -21.79110958 36.15555775 -24 33 C-24.8353125 32.2265625 -24.8353125 32.2265625 -25.6875 31.4375 C-29.04822602 27.75670484 -28.39461494 21.71577073 -28.33203125 17.0390625 C-27.7059162 11.30826824 -25.15810552 8.13067197 -21.15625 4.1796875 C-14.77389004 -0.94048934 -7.91571044 -1.05814124 0 0 Z " fill="#788188" transform="translate(237,200)"/>
<path d="M0 0 C1.21171875 -0.02578125 2.4234375 -0.0515625 3.671875 -0.078125 C8.34541281 0.3504527 11.5800957 1.71470672 15.04296875 4.8984375 C15.50316406 5.46820313 15.96335938 6.03796875 16.4375 6.625 C16.9428125 7.2334375 17.448125 7.841875 17.96875 8.46875 C19.25 10.25 19.25 10.25 20.4375 13.125 C22.84418115 15.94662618 24.30710488 15.72446576 27.9375 16.0625 C29.70739906 16.14743679 31.478373 16.21691359 33.25 16.25 C33.3428125 14.950625 33.3428125 14.950625 33.4375 13.625 C34.61374845 8.73904492 37.02162784 5.92127912 40.9375 2.984375 C46.70582662 -0.42855159 52.70552483 -0.64242843 59.25 0.25 C64.69507318 2.10132488 69.28464177 6.15959572 72.35546875 10.98828125 C74.64240262 16.77052889 74.38452504 24.22172404 72.22265625 29.9921875 C68.76972808 35.6737369 64.25060815 38.59639773 58.25 41.25 C57.58076238 44.53743547 57.58076238 44.53743547 58.25 48.25 C60.07036832 49.79414328 61.97097669 50.80131258 64.07421875 51.92578125 C68.04744072 54.34395404 71.17348103 58.09696207 73.25 62.25 C74.59444379 75.60277125 74.59444379 75.60277125 71.86328125 80.98046875 C70.09281787 83.02744702 68.43151354 84.65078601 66.25 86.25 C65.49976563 86.80300781 64.74953125 87.35601562 63.9765625 87.92578125 C60.44422018 89.64134579 57.72667529 89.64865061 53.8125 89.625 C51.89630859 89.63660156 51.89630859 89.63660156 49.94140625 89.6484375 C44.47376296 89.05827918 41.31943083 87.34373607 37.5 83.4375 C35.33181356 80.36590254 34.19662522 77.86438719 33.25 74.25 C27.31 74.745 27.31 74.745 21.25 75.25 C20.92 76.28125 20.59 77.3125 20.25 78.375 C18.24362991 83.12083694 14.5739394 85.65214931 10.25 88.25 C6.71502138 89.42832621 3.49106929 89.43397309 -0.1875 89.4375 C-1.50621094 89.45167969 -2.82492188 89.46585937 -4.18359375 89.48046875 C-8.76565907 89.18436595 -10.58496736 88.54287266 -13.63671875 85.15625 C-14.23097656 84.3621875 -14.82523438 83.568125 -15.4375 82.75 C-16.03949219 81.9559375 -16.64148438 81.161875 -17.26171875 80.34375 C-20.93955161 75.16968593 -20.16239749 69.3984716 -19.75 63.25 C-17.71949861 57.26536433 -14.02063164 53.54114348 -8.5625 50.4375 C-3.01759751 48.71039922 2.21273054 48.5268406 7.875 49.875 C14.07919612 53.46690302 18.53712445 57.10947505 22.25 63.25 C25.51382646 64.88191323 27.65342633 64.79862988 31.25 64.25 C32.74604456 62.42301224 33.75177019 60.50518504 34.8671875 58.42578125 C37.50316932 54.27820533 41.76608794 50.98005415 46.49609375 49.58984375 C47.07488281 49.47769531 47.65367187 49.36554688 48.25 49.25 C48.25124646 45.13770912 48.25124646 45.13770912 47.25 41.25 C45.36434731 39.62756199 43.44137301 38.56456791 41.25 37.39453125 C37.57465235 35.29125613 35.73075208 32.06358045 33.625 28.5 C32.4487496 26.12854191 32.4487496 26.12854191 30.25 25.25 C26.15400224 24.45065559 26.15400224 24.45065559 22.25 25.25 C20.20435877 27.5840722 18.66810812 30.0680094 17.01953125 32.6953125 C13.86401301 37.25096135 10.13326588 39.51883688 4.80078125 40.87109375 C-0.88319803 41.71542145 -5.84640005 41.41754282 -10.75 38.25 C-15.19203594 34.11461349 -19.38445862 29.65855469 -20.05078125 23.4453125 C-20.09163997 12.74032871 -20.09163997 12.74032871 -16.75 8.25 C-11.15700373 2.75994231 -7.97286867 0.10092239 0 0 Z " fill="#B81751" transform="translate(228.75,101.75)"/>
<path d="M0 0 C0.75925781 0.75796875 1.51851562 1.5159375 2.30078125 2.296875 C3.45126953 3.41835937 3.45126953 3.41835937 4.625 4.5625 C7.54693809 8.21348748 8.43433809 11.71758294 9.05078125 16.296875 C8.28863032 22.82959726 5.23149622 28.01373312 1.17578125 33.109375 C-1.74513141 35.31786994 -3.76729422 35.79435701 -7.38671875 36.046875 C-7.71671875 39.016875 -8.04671875 41.986875 -8.38671875 45.046875 C-7.70609375 45.253125 -7.02546875 45.459375 -6.32421875 45.671875 C-2.470325 47.47582527 0.69115889 49.9479095 3.61328125 53.046875 C3.61328125 53.706875 3.61328125 54.366875 3.61328125 55.046875 C4.27328125 55.046875 4.93328125 55.046875 5.61328125 55.046875 C7.88645489 61.58224922 8.4784366 67.91335498 7.05078125 74.734375 C3.65094836 80.20367138 -1.21407377 85.02889491 -7.38671875 87.046875 C-14.55199447 87.9167112 -19.55933413 87.38641674 -25.38671875 83.046875 C-26.04671875 82.056875 -26.70671875 81.066875 -27.38671875 80.046875 C-26.72671875 80.046875 -26.06671875 80.046875 -25.38671875 80.046875 C-26.75655378 76.88571724 -27.37578255 76.0541658 -30.38671875 74.046875 C-30.57421875 70.921875 -30.57421875 70.921875 -30.38671875 68.046875 C-31.04671875 68.046875 -31.70671875 68.046875 -32.38671875 68.046875 C-32.71671875 67.056875 -33.04671875 66.066875 -33.38671875 65.046875 C-37.01671875 64.716875 -40.64671875 64.386875 -44.38671875 64.046875 C-44.38671875 63.056875 -44.38671875 62.066875 -44.38671875 61.046875 C-43.6390625 61.05589844 -42.89140625 61.06492187 -42.12109375 61.07421875 C-39.07905738 60.98263912 -36.34461622 60.77556986 -33.38671875 60.046875 C-31.31053889 57.22203899 -31.31053889 57.22203899 -30.48046875 55.03125 C-28.04559367 50.61369093 -22.84799824 47.27751475 -18.38671875 45.046875 C-18.38671875 42.076875 -18.38671875 39.106875 -18.38671875 36.046875 C-19.43859375 35.82 -20.49046875 35.593125 -21.57421875 35.359375 C-25.57966588 34.21842945 -27.66582107 32.22125563 -30.38671875 29.046875 C-30.92167969 28.47582031 -31.45664063 27.90476563 -32.0078125 27.31640625 C-33.92021246 24.16880179 -33.74994788 21.76577456 -33.69921875 18.109375 C-33.69535156 16.90410156 -33.69148437 15.69882813 -33.6875 14.45703125 C-33.40239308 11.22458525 -32.77225087 8.95594044 -31.38671875 6.046875 C-30.72671875 6.046875 -30.06671875 6.046875 -29.38671875 6.046875 C-29.18046875 5.49 -28.97421875 4.933125 -28.76171875 4.359375 C-26.48147994 0.52442792 -23.30697611 -2.27843998 -19.07421875 -3.765625 C-5.73853806 -4.69602133 -5.73853806 -4.69602133 0 0 Z " fill="#B91852" transform="translate(189.38671875,203.953125)"/>
<path d="M0 0 C0.78375 0.45375 1.5675 0.9075 2.375 1.375 C3.03628906 1.75527344 3.69757813 2.13554687 4.37890625 2.52734375 C9.93185557 6.11341656 9.93185557 6.11341656 11.19140625 9.69921875 C11.625 12.125 11.625 12.125 11.828125 14.421875 C12.18478208 16.57388436 12.18478208 16.57388436 14.359375 17.515625 C15.35710937 17.94101563 15.35710937 17.94101563 16.375 18.375 C16.87 19.365 16.87 19.365 17.375 20.375 C19.39169827 21.50850534 19.39169827 21.50850534 21.375 22.375 C20.67632812 22.49617188 19.97765625 22.61734375 19.2578125 22.7421875 C18.34773438 22.90976563 17.43765625 23.07734375 16.5 23.25 C15.14261719 23.49363281 15.14261719 23.49363281 13.7578125 23.7421875 C11.20994012 24.20544703 11.20994012 24.20544703 9.375 26.375 C9.2925 27.468125 9.21 28.56125 9.125 29.6875 C8.10889202 34.68336425 6.51932869 35.55685649 2.375 38.375 C-1.15997862 39.55332621 -4.38393071 39.55897309 -8.0625 39.5625 C-9.38121094 39.57667969 -10.69992188 39.59085938 -12.05859375 39.60546875 C-16.64065907 39.30936595 -18.45996736 38.66787266 -21.51171875 35.28125 C-22.10597656 34.4871875 -22.70023438 33.693125 -23.3125 32.875 C-23.91449219 32.0809375 -24.51648438 31.286875 -25.13671875 30.46875 C-28.81455161 25.29468593 -28.03739749 19.5234716 -27.625 13.375 C-25.59449861 7.39036433 -21.89563164 3.66614348 -16.4375 0.5625 C-10.89259751 -1.16460078 -5.66226946 -1.3481594 0 0 Z " fill="#750D39" transform="translate(236.625,151.625)"/>
<path d="M0 0 C1.21171875 -0.02578125 2.4234375 -0.0515625 3.671875 -0.078125 C9.02883879 0.41312495 13.00512192 2.40069091 16.5625 6.4375 C19.69775248 10.2685657 20.07885923 13.37248815 20.25 18.25 C21.9 18.58 23.55 18.91 25.25 19.25 C25.745 20.735 25.745 20.735 26.25 22.25 C23.94 22.25 21.63 22.25 19.25 22.25 C19.25 23.57 19.25 24.89 19.25 26.25 C18.26 26.25 17.27 26.25 16.25 26.25 C15.92 28.56 15.59 30.87 15.25 33.25 C14.26 33.25 13.27 33.25 12.25 33.25 C12.25 34.57 12.25 35.89 12.25 37.25 C8.06317794 41.01813986 2.67075515 41.35775201 -2.75 41.25 C-8.98433833 40.30032481 -12.37675932 37.02607421 -16.3046875 32.28515625 C-20.44465032 26.45564104 -20.32609991 21.26708574 -19.75 14.25 C-17.96776651 8.34635156 -13.50733707 4.91648271 -8.75 1.25 C-5.83999203 -0.20500399 -3.2410667 0.04102616 0 0 Z " fill="#760E3C" transform="translate(228.75,101.75)"/>
<path d="M0 0 C4.78523766 2.48418328 7.86794247 5.15860519 10.28515625 10.09375 C11.03515625 12.90625 11.03515625 12.90625 11.28515625 16.09375 C11.37152344 16.76277344 11.45789063 17.43179688 11.546875 18.12109375 C12.0903501 24.99303448 9.64488752 29.86019328 5.28515625 35.09375 C-0.0220382 39.87268204 -6.67391208 39.7017562 -13.50390625 39.46875 C-18.68844343 38.86325661 -21.08878622 37.04810893 -24.359375 33.1171875 C-26.36303983 30.53635458 -28.25170047 28.02003655 -29.71484375 25.09375 C-32.0708361 24.62623212 -32.0708361 24.62623212 -34.77734375 24.46875 C-35.69644531 24.39398438 -36.61554688 24.31921875 -37.5625 24.2421875 C-38.27277344 24.19320312 -38.98304688 24.14421875 -39.71484375 24.09375 C-39.71484375 23.76375 -39.71484375 23.43375 -39.71484375 23.09375 C-37.98603393 23.03925162 -36.25671663 23.00073312 -34.52734375 22.96875 C-33.08294922 22.93394531 -33.08294922 22.93394531 -31.609375 22.8984375 C-28.51363529 23.10732682 -26.44043785 23.61659236 -23.71484375 25.09375 C-22.67998498 27.41183364 -21.67930235 29.74550298 -20.71484375 32.09375 C-18.67966765 33.5756464 -18.67966765 33.5756464 -16.71484375 34.09375 C-16.71484375 34.75375 -16.71484375 35.41375 -16.71484375 36.09375 C-11.25346561 36.19127461 -6.12228393 35.86624145 -0.71484375 35.09375 C-0.38484375 34.10375 -0.05484375 33.11375 0.28515625 32.09375 C0.94515625 32.09375 1.60515625 32.09375 2.28515625 32.09375 C2.28515625 31.43375 2.28515625 30.77375 2.28515625 30.09375 C3.27515625 30.09375 4.26515625 30.09375 5.28515625 30.09375 C7.9667557 23.89255128 8.4280428 16.52240964 6.28515625 10.09375 C3.28508354 8.38519978 3.28508354 8.38519978 0.28515625 7.09375 C0.28515625 6.10375 0.28515625 5.11375 0.28515625 4.09375 C-0.37484375 4.09375 -1.03484375 4.09375 -1.71484375 4.09375 C-1.71484375 3.43375 -1.71484375 2.77375 -1.71484375 2.09375 C-10.06906942 1.74423842 -10.06906942 1.74423842 -17.65234375 4.42578125 C-19.09399479 6.20740192 -19.09399479 6.20740192 -20.71484375 9.09375 C-21.70484375 9.75375 -22.69484375 10.41375 -23.71484375 11.09375 C-24.10285156 11.94324219 -24.49085938 12.79273437 -24.890625 13.66796875 C-26.71484375 16.09375 -26.71484375 16.09375 -30.5078125 16.80078125 C-31.97186454 16.86040328 -33.43712345 16.89473298 -34.90234375 16.90625 C-35.65193359 16.93138672 -36.40152344 16.95652344 -37.17382812 16.98242188 C-39.02026996 17.04122576 -40.86761377 17.07036734 -42.71484375 17.09375 C-44.46049486 13.87735346 -44.91928075 11.77361596 -44.71484375 8.09375 C-46.03484375 8.42375 -47.35484375 8.75375 -48.71484375 9.09375 C-48.38484375 7.44375 -48.05484375 5.79375 -47.71484375 4.09375 C-43.60316496 7.01520598 -42.69230816 8.15008898 -40.71484375 13.09375 C-37.08484375 13.09375 -33.45484375 13.09375 -29.71484375 13.09375 C-29.19921875 12.0625 -28.68359375 11.03125 -28.15234375 9.96875 C-22.20445813 -0.48253473 -11.40914696 -3.808521 0 0 Z " fill="#B03261" transform="translate(185.71484375,102.90625)"/>
<path d="M0 0 C2 1 2 1 2.84765625 2.7734375 C3 5 3 5 1.55859375 7.2890625 C-5.47288633 15.03275511 -5.47288633 15.03275511 -11 16 C-10.071875 16.45375 -9.14375 16.9075 -8.1875 17.375 C-2.94996041 20.04511822 -1.42680348 21.8002709 0.7421875 27.02734375 C2.46179933 29.72425051 4.10309817 30.66140351 7 32 C10.24434747 32.53568104 10.24434747 32.53568104 13.625 32.625 C19.75935829 32.9197861 19.75935829 32.9197861 23 34 C18.11666638 37.25555575 12.71188805 36.44371017 7 36 C1.76862971 34.31848812 -0.85349615 31.45754712 -4 27 C-5.3125 23.625 -5.3125 23.625 -6 21 C-9.96 21.33 -13.92 21.66 -18 22 C-18.99 24.31 -19.98 26.62 -21 29 C-21.66 29 -22.32 29 -23 29 C-23 26.36 -23 23.72 -23 21 C-20.03 20.01 -17.06 19.02 -14 18 C-15.63814817 14.90102143 -15.63814817 14.90102143 -18.0625 14.25 C-18.701875 13.8375 -19.34125 13.425 -20 13 C-20.75 9.375 -20.75 9.375 -21 6 C-19.7315625 7.2375 -19.7315625 7.2375 -18.4375 8.5 C-15.91209397 10.56678276 -14.77656501 11.05095886 -11.4375 11.8125 C-8.02077619 11.36198069 -8.02077619 11.36198069 -6.55078125 9.3046875 C-5.22962803 7.21246854 -5.22962803 7.21246854 -4.140625 5.04296875 C-2.98530518 2.97368016 -1.7433794 1.58807836 0 0 Z " fill="#922B52" transform="translate(268,155)"/>
<path d="M0 0 C0.54140625 0.32226562 1.0828125 0.64453125 1.640625 0.9765625 C1.640625 1.3065625 1.640625 1.6365625 1.640625 1.9765625 C-0.0609375 1.98042969 -0.0609375 1.98042969 -1.796875 1.984375 C-12.70117264 1.976379 -12.70117264 1.976379 -21.9296875 7.15234375 C-23.90800732 9.67659336 -25.16996188 12.34148972 -26.421875 15.28125 C-27.359375 16.9765625 -27.359375 16.9765625 -30.046875 18.3515625 C-30.81 18.5578125 -31.573125 18.7640625 -32.359375 18.9765625 C-32.689375 19.6365625 -33.019375 20.2965625 -33.359375 20.9765625 C-31.049375 21.3065625 -28.739375 21.6365625 -26.359375 21.9765625 C-26.029375 24.6165625 -25.699375 27.2565625 -25.359375 29.9765625 C-25.978125 29.1721875 -26.596875 28.3678125 -27.234375 27.5390625 C-29.97889639 24.22949259 -30.77256025 24.08596864 -35.046875 23.2890625 C-37.23286226 23.17549209 -37.23286226 23.17549209 -39.359375 23.9765625 C-41.5430199 26.36303607 -43.15418203 28.82206021 -44.81640625 31.59375 C-46.359375 33.9765625 -46.359375 33.9765625 -49.359375 35.9765625 C-49.359375 34.6565625 -49.359375 33.3365625 -49.359375 31.9765625 C-48.369375 31.9765625 -47.379375 31.9765625 -46.359375 31.9765625 C-46.029375 29.6665625 -45.699375 27.3565625 -45.359375 24.9765625 C-44.369375 24.9765625 -43.379375 24.9765625 -42.359375 24.9765625 C-42.359375 23.6565625 -42.359375 22.3365625 -42.359375 20.9765625 C-40.379375 20.6465625 -38.399375 20.3165625 -36.359375 19.9765625 C-36.359375 19.3165625 -36.359375 18.6565625 -36.359375 17.9765625 C-38.009375 17.6465625 -39.659375 17.3165625 -41.359375 16.9765625 C-41.689375 14.9965625 -42.019375 13.0165625 -42.359375 10.9765625 C-41.98167969 11.45738281 -41.60398438 11.93820313 -41.21484375 12.43359375 C-38.71406095 14.51319208 -36.88630696 14.47497827 -33.671875 14.6640625 C-32.67800781 14.72980469 -31.68414062 14.79554687 -30.66015625 14.86328125 C-29.52126953 14.91935547 -29.52126953 14.91935547 -28.359375 14.9765625 C-28.2665625 13.6771875 -28.2665625 13.6771875 -28.171875 12.3515625 C-26.99562655 7.46560742 -24.58774716 4.64784162 -20.671875 1.7109375 C-14.6721011 -1.83892872 -6.48375239 -2.81248862 0 0 Z " fill="#8D1644" transform="translate(290.359375,103.0234375)"/>
<path d="M0 0 C0 0.33 0 0.66 0 1 C-0.96679688 0.95617187 -1.93359375 0.91234375 -2.9296875 0.8671875 C-10.56014515 0.88229732 -15.12066311 1.11666951 -20.8125 6.75 C-24.71717976 11.11905541 -26.7597143 14.71728585 -27.375 20.5625 C-26.92849894 24.65542636 -25.99773926 25.35493595 -23 28 C-22.690625 28.86625 -22.38125 29.7325 -22.0625 30.625 C-21.18811014 33.25256667 -21.18811014 33.25256667 -18.375 34.3125 C-17.199375 34.6528125 -17.199375 34.6528125 -16 35 C-17.7109375 35.671875 -17.7109375 35.671875 -20 36 C-22.2890625 34.890625 -22.2890625 34.890625 -24.625 33.25 C-25.40101563 32.71890625 -26.17703125 32.1878125 -26.9765625 31.640625 C-29 30 -29 30 -31 27 C-31.265625 23.8203125 -31.265625 23.8203125 -31.25 20.125 C-31.25515625 18.91070312 -31.2603125 17.69640625 -31.265625 16.4453125 C-31.01353508 13.17555789 -30.40602799 10.93480445 -29 8 C-28.34 8 -27.68 8 -27 8 C-26.79375 7.443125 -26.5875 6.88625 -26.375 6.3125 C-24.09476119 2.47755292 -20.92025736 -0.32531498 -16.6875 -1.8125 C-5.08066581 -2.62227913 -5.08066581 -2.62227913 0 0 Z " fill="#94204C" transform="translate(187,202)"/>
<path d="M0 0 C4.79786502 2.77209979 6.91248368 4.87887077 9 10 C10.00591175 16.65149396 10.11666162 23.17838798 6.5625 29.0625 C3.18315357 33.40621627 -1.02424066 35.79960865 -6 38 C-6.26932521 42.65052872 -6.26932521 42.65052872 -5 47 C-6.32 46.67 -7.64 46.34 -9 46 C-8.65697871 37.97330179 -8.65697871 37.97330179 -6.3125 34.5 C-3.53470347 32.69818603 -1.2733498 32.29757725 2 32 C2 30.68 2 29.36 2 28 C2.99 28 3.98 28 5 28 C5.33 22.39 5.66 16.78 6 11 C5.01 10.67 4.02 10.34 3 10 C1.69519135 6.73797837 0.78933188 3.42043815 0 0 Z " fill="#B4486E" transform="translate(293,105)"/>
<path d="M0 0 C0.85078125 0.3403125 0.85078125 0.3403125 1.71875 0.6875 C0.6359375 1.739375 0.6359375 1.739375 -0.46875 2.8125 C-4.21073996 6.56506055 -7.53576607 10.45279224 -10.28125 15 C-12.28125 17.6875 -12.28125 17.6875 -14.46875 18.625 C-18.46018576 18.71369857 -22.3334879 18.24655128 -26.28125 17.6875 C-26.28125 16.6975 -26.28125 15.7075 -26.28125 14.6875 C-25.15976563 14.70103516 -25.15976563 14.70103516 -24.015625 14.71484375 C-20.97358863 14.62326412 -18.23914747 14.41619486 -15.28125 13.6875 C-13.20837135 10.86203482 -13.20837135 10.86203482 -12.3671875 8.6796875 C-10.15494545 4.62125784 -4.85167929 -0.6646136 0 0 Z " fill="#9D1B4B" transform="translate(171.28125,250.3125)"/>
<path d="M0 0 C0.99 0.66 1.98 1.32 3 2 C3 2.66 3 3.32 3 4 C3.66 4 4.32 4 5 4 C7.27317364 10.53537422 7.86515535 16.86647998 6.4375 23.6875 C3.03766711 29.15679638 -1.82735502 33.98201991 -8 36 C-15.16527572 36.8698362 -20.17261538 36.33954174 -26 32 C-26.66 31.01 -27.32 30.02 -28 29 C-25.5625 29.375 -25.5625 29.375 -23 30 C-22.67 30.66 -22.34 31.32 -22 32 C-15.73 32 -9.46 32 -3 32 C-2.34 30.35 -1.68 28.7 -1 27 C-0.34 27 0.32 27 1 27 C1 26.34 1 25.68 1 25 C1.99 25 2.98 25 4 25 C4 18.4 4 11.8 4 5 C3.01 4.67 2.02 4.34 1 4 C0.3125 1.9375 0.3125 1.9375 0 0 Z " fill="#A95273" transform="translate(190,255)"/>
<path d="M0 0 C1.72880982 -0.05449838 3.45812712 -0.09301688 5.1875 -0.125 C6.15042969 -0.14820312 7.11335937 -0.17140625 8.10546875 -0.1953125 C11.20120846 0.01357682 13.2744059 0.52284236 16 2 C17.03485877 4.31808364 18.0355414 6.65175298 19 9 C21.0351761 10.4818964 21.0351761 10.4818964 23 11 C23 11.66 23 12.32 23 13 C28.61 13.33 34.22 13.66 40 14 C34.90379438 17.39747041 28.9471188 16.53503491 23 16 C17.05357471 13.45153202 12.87270131 7.74540262 10 2 C7.64400765 1.53248212 7.64400765 1.53248212 4.9375 1.375 C4.01839844 1.30023438 3.09929687 1.22546875 2.15234375 1.1484375 C1.08693359 1.07496094 1.08693359 1.07496094 0 1 C0 0.67 0 0.34 0 0 Z " fill="#A13B61" transform="translate(146,126)"/>
<path d="M0 0 C0.33 0.99 0.66 1.98 1 3 C0.67 3.66 0.34 4.32 0 5 C-0.66 5 -1.32 5 -2 5 C-1.95875 5.94875 -1.9175 6.8975 -1.875 7.875 C-2 11 -2 11 -4 13 C-6.73434962 13.3063859 -9.38279821 13.5113336 -12.125 13.625 C-13.25615234 13.68300781 -13.25615234 13.68300781 -14.41015625 13.7421875 C-16.27303184 13.83651031 -18.13648255 13.91934662 -20 14 C-21.74565111 10.78360346 -22.204437 8.67986596 -22 5 C-23.32 5.33 -24.64 5.66 -26 6 C-25.67 4.35 -25.34 2.7 -25 1 C-20.88832121 3.92145598 -19.97746441 5.05633898 -18 10 C-14.37 10 -10.74 10 -7 10 C-6.401875 8.906875 -5.80375 7.81375 -5.1875 6.6875 C-3.70955303 4.08925871 -2.30177067 1.95650507 0 0 Z " fill="#A24A6D" transform="translate(163,106)"/>
<path d="M0 0 C2.875 -0.125 2.875 -0.125 6 0 C8.37040308 2.37040308 8.34465793 3.06302753 8.4375 6.3125 C8.35506084 9.98104268 8.13558311 10.82180505 5.8125 13.875 C3 16 3 16 0.25 17.625 C-2.31074335 18.85790128 -2.31074335 18.85790128 -3 22 C-3.66 22 -4.32 22 -5 22 C-5.66 23.32 -6.32 24.64 -7 26 C-7.33 26 -7.66 26 -8 26 C-7.75926055 21.90742938 -7.45019136 19.56935966 -4.875 16.3125 C-1.70313628 13.76121831 1.40707825 11.90213505 5 10 C5 7.69 5 5.38 5 3 C2.525 2.01 2.525 2.01 0 1 C0 0.67 0 0.34 0 0 Z " fill="#712C4D" transform="translate(114,140)"/>
<path d="M0 0 C1.62890625 0.82421875 1.62890625 0.82421875 3.81640625 2.32421875 C3.48640625 2.98421875 3.15640625 3.64421875 2.81640625 4.32421875 C0.50640625 3.66421875 -1.80359375 3.00421875 -4.18359375 2.32421875 C-4.18359375 1.99421875 -4.18359375 1.66421875 -4.18359375 1.32421875 C-8.14576157 0.83905534 -11.69223161 0.45496767 -15.234375 2.51953125 C-17.82150079 4.72440505 -19.91632241 6.96149336 -21.93359375 9.69921875 C-22.34609375 10.23546875 -22.75859375 10.77171875 -23.18359375 11.32421875 C-24.17359375 11.32421875 -25.16359375 11.32421875 -26.18359375 11.32421875 C-26.51359375 16.60421875 -26.84359375 21.88421875 -27.18359375 27.32421875 C-27.51359375 27.32421875 -27.84359375 27.32421875 -28.18359375 27.32421875 C-29.08485552 11.9426846 -29.08485552 11.9426846 -24.66796875 5.64453125 C-22.89617978 4.06857159 -21.49821422 3.70998883 -19.18359375 3.32421875 C-19.18359375 2.66421875 -19.18359375 2.00421875 -19.18359375 1.32421875 C-13.7945432 -1.97493171 -5.93686036 -1.83734677 0 0 Z " fill="#743553" transform="translate(132.18359375,102.67578125)"/>
<path d="M0 0 C6.31380335 1.23196163 9.28718988 5.09049902 13 10 C15.45782459 14.91564918 14.91891684 22.62840064 14 28 C11.48273329 32.95653362 7.12375561 36.80410474 2 39 C1.34 38.67 0.68 38.34 0 38 C1.485 37.505 1.485 37.505 3 37 C3 36.01 3 35.02 3 34 C3.78375 33.938125 4.5675 33.87625 5.375 33.8125 C6.24125 33.544375 7.1075 33.27625 8 33 C9.23290201 30.54295238 9.23290201 30.54295238 10 28 C10.66 27.67 11.32 27.34 12 27 C12 22.71 12 18.42 12 14 C11.34 13.67 10.68 13.34 10 13 C9.375 9.9375 9.375 9.9375 9 7 C8.236875 6.896875 7.47375 6.79375 6.6875 6.6875 C3.78132022 5.94405866 2.80086951 5.34113037 1 3 C0.67 2.01 0.34 1.02 0 0 Z " fill="#B85377" transform="translate(288,152)"/>
<path d="M0 0 C1.04929687 -0.01417969 2.09859375 -0.02835937 3.1796875 -0.04296875 C6.06047071 0.18245063 7.68740208 0.69785683 10.125 2.1875 C10.125 2.5175 10.125 2.8475 10.125 3.1875 C8.990625 3.19007812 7.85625 3.19265625 6.6875 3.1953125 C-4.34149245 3.26477633 -4.34149245 3.26477633 -13.625 8.71484375 C-14.97219174 10.18367406 -14.97219174 10.18367406 -15.875 12.1875 C-16.535 12.1875 -17.195 12.1875 -17.875 12.1875 C-17.875 12.8475 -17.875 13.5075 -17.875 14.1875 C-18.535 13.8575 -19.195 13.5275 -19.875 13.1875 C-15.91151008 4.76508392 -9.3966275 0.0574366 0 0 Z " fill="#A22F5B" transform="translate(281.875,101.8125)"/>
<path d="M0 0 C4.47418228 3.30700429 6.86706719 5.33533596 8 11 C8.89665642 17.66087625 6.45657649 22.46947762 3 28 C1.42909945 29.90206337 -0.11960709 31.38823465 -2 33 C-2.99 32.67 -3.98 32.34 -5 32 C-4.34 32 -3.68 32 -3 32 C-3 31.34 -3 30.68 -3 30 C-2.34 30 -1.68 30 -1 30 C-1 29.01 -1 28.02 -1 27 C-0.01 27 0.98 27 2 27 C2 25.35 2 23.7 2 22 C2.66 21.67 3.32 21.34 4 21 C4.08126087 18.91731407 4.13930839 16.83371342 4.1875 14.75 C4.22230469 13.58984375 4.25710937 12.4296875 4.29296875 11.234375 C3.97518463 7.7260383 3.26142185 6.58787383 1 4 C1 3.34 1 2.68 1 2 C0.34 1.67 -0.32 1.34 -1 1 C-0.67 0.67 -0.34 0.34 0 0 Z " fill="#B13965" transform="translate(190,206)"/>
<path d="M0 0 C2 1 2 1 2.83203125 2.765625 C3.07911295 6.05238617 1.77719579 7.26671102 -0.3125 9.75 C-2.71545291 12.32187754 -4.18448971 13.79703395 -7.62109375 14.65234375 C-11.99926909 14.7108929 -15.16197861 14.15668633 -19 12 C-19 11.34 -19 10.68 -19 10 C-19.66 10 -20.32 10 -21 10 C-20.67 8.68 -20.34 7.36 -20 6 C-19.319375 6.825 -18.63875 7.65 -17.9375 8.5 C-15.17018973 11.24274695 -15.17018973 11.24274695 -11.5 11.8125 C-8.0272197 11.37052449 -8.0272197 11.37052449 -6.546875 9.3046875 C-5.22993143 7.21188409 -5.22993143 7.21188409 -4.140625 5.04296875 C-2.98530518 2.97368016 -1.7433794 1.58807836 0 0 Z " fill="#9A1948" transform="translate(268,155)"/>
<path d="M0 0 C0.99 0.33 1.98 0.66 3 1 C2.278125 1.66 1.55625 2.32 0.8125 3 C-3.15235796 6.95356207 -6.23010853 11.69032558 -8 17 C-8.33 16.67 -8.66 16.34 -9 16 C-9.33 18.97 -9.66 21.94 -10 25 C-10.33 25 -10.66 25 -11 25 C-11 20.05 -11 15.1 -11 10 C-10.34 10 -9.68 10 -9 10 C-8.79375 9.071875 -8.5875 8.14375 -8.375 7.1875 C-6.64253746 3.17133684 -4.95943584 2.600623 -1 1 C-0.67 0.67 -0.34 0.34 0 0 Z " fill="#601C3B" transform="translate(115,252)"/>
<path d="M0 0 C0 0.33 0 0.66 0 1 C-1.00160156 0.99097656 -2.00320312 0.98195312 -3.03515625 0.97265625 C-10.63166629 0.92786194 -10.63166629 0.92786194 -17.5546875 3.625 C-19.22014151 5.3388282 -20.66957332 7.01730188 -22 9 C-22 6 -22 6 -21 3 C-22.98 3.99 -22.98 3.99 -25 5 C-22.86235676 1.75078228 -21.44889096 0.18483746 -17.8125 -1.3125 C-11.57382882 -2.43750628 -5.79632432 -2.99165126 0 0 Z " fill="#AB4269" transform="translate(187,202)"/>
<path d="M0 0 C0.33 0 0.66 0 1 0 C1 1.98 1 3.96 1 6 C-0.65 6.66 -2.3 7.32 -4 8 C-4 8.66 -4 9.32 -4 10 C-4.66 10 -5.32 10 -6 10 C-6.33 10.99 -6.66 11.98 -7 13 C-8.32 13 -9.64 13 -11 13 C-11 13.66 -11 14.32 -11 15 C-11.66 15 -12.32 15 -13 15 C-12.67 16.98 -12.34 18.96 -12 21 C-11.01 21.33 -10.02 21.66 -9 22 C-9 22.66 -9 23.32 -9 24 C-13.875 22.125 -13.875 22.125 -15 21 C-15.5625 17.75 -15.5625 17.75 -15 14 C-12.22329443 11.45099694 -8.86538875 9 -5 9 C-4.731875 8.443125 -4.46375 7.88625 -4.1875 7.3125 C-2.89596023 4.79739624 -1.52231135 2.3827482 0 0 Z " fill="#EFBAD0" transform="translate(301,129)"/>
<path d="M0 0 C5.75 3.625 5.75 3.625 8 7 C8.14245897 9.76655324 8.18769445 12.42653306 8.125 15.1875 C8.11597656 15.93708984 8.10695313 16.68667969 8.09765625 17.45898438 C8.07412578 19.30612654 8.03825561 21.15310412 8 23 C7.01 23.33 6.02 23.66 5 24 C5.33 19.71 5.66 15.42 6 11 C5.01 10.67 4.02 10.34 3 10 C1.69519135 6.73797837 0.78933188 3.42043815 0 0 Z " fill="#B52857" transform="translate(293,105)"/>
<path d="M0 0 C0.66 0.33 1.32 0.66 2 1 C1.86980469 1.67804688 1.73960937 2.35609375 1.60546875 3.0546875 C0.57668017 9.99660668 1.34824806 13.98578468 4.96875 20.00390625 C5.3090625 20.66261719 5.649375 21.32132813 6 22 C5.67 22.66 5.34 23.32 5 24 C-2.28999363 15.55895475 -2.28999363 15.55895475 -2.25 9 C-2.25515625 8.154375 -2.2603125 7.30875 -2.265625 6.4375 C-1.98531155 3.86521189 -1.2948187 2.2196892 0 0 Z " fill="#581B37" transform="translate(211,114)"/>
<path d="M0 0 C1.46373047 0.02707031 1.46373047 0.02707031 2.95703125 0.0546875 C3.69308594 0.07789063 4.42914063 0.10109375 5.1875 0.125 C5.31125 1.5171875 5.31125 1.5171875 5.4375 2.9375 C6.30990217 6.64520922 7.1616482 7.07522943 10.1875 9.125 C10.1875 10.115 10.1875 11.105 10.1875 12.125 C9.1975 12.125 8.2075 12.125 7.1875 12.125 C5.86328125 10.15625 5.86328125 10.15625 4.5 7.625 C2.4821824 4.24018952 2.4821824 4.24018952 -0.83984375 2.45703125 C-4.52530597 2.42271596 -7.73834937 3.07556625 -10.8125 5.125 C-10.8125 4.135 -10.8125 3.145 -10.8125 2.125 C-7.04027911 0.37336544 -4.145861 -0.09990027 0 0 Z " fill="#8F264E" transform="translate(153.8125,271.875)"/>
<path d="M0 0 C0 3.43997205 -0.54371077 5.3370667 -2.4921875 8.16796875 C-6.24056523 10.90626961 -9.60865819 10.47303348 -14.125 10.3125 C-14.94871094 10.30283203 -15.77242187 10.29316406 -16.62109375 10.28320312 C-22.66095344 10.16952328 -22.66095344 10.16952328 -25 9 C-24.67 8.34 -24.34 7.68 -24 7 C-23.05898437 7.03480469 -22.11796875 7.06960937 -21.1484375 7.10546875 C-19.90320313 7.13253906 -18.65796875 7.15960938 -17.375 7.1875 C-15.53035156 7.23970703 -15.53035156 7.23970703 -13.6484375 7.29296875 C-9.72017489 6.9775301 -7.40605308 5.90279505 -4 4 C-3.34 4 -2.68 4 -2 4 C-1.34 2.68 -0.68 1.36 0 0 Z " fill="#EFC7D7" transform="translate(193,134)"/>
<path d="M0 0 C0.99 0.66 1.98 1.32 3 2 C2.01 2.33 1.02 2.66 0 3 C-0.33 3.99 -0.66 4.98 -1 6 C-1.66 6 -2.32 6 -3 6 C-3.268125 6.928125 -3.53625 7.85625 -3.8125 8.8125 C-5.55145119 13.48021108 -5.55145119 13.48021108 -8 15 C-12.18660919 15.5427086 -14.27416426 15.4575921 -17.875 13.1875 C-20 11 -20 11 -21 8 C-18 9 -18 9 -16 12 C-12.28359861 12.27028374 -9.542799 12.180933 -6 11 C-5.7834375 9.824375 -5.7834375 9.824375 -5.5625 8.625 C-5 6 -5 6 -4 4 C-3.34 4 -2.68 4 -2 4 C-2 3.34 -2 2.68 -2 2 C-1.34 2 -0.68 2 0 2 C0 1.34 0 0.68 0 0 Z " fill="#F5D4E3" transform="translate(268,152)"/>
<path d="M0 0 C2.3111349 3.46670236 2.24298883 4.85654877 2.1875 8.9375 C2.18105469 9.97777344 2.17460937 11.01804688 2.16796875 12.08984375 C2.02334065 14.59560971 1.87821372 16.65633328 1 19 C-1.5625 20.75 -1.5625 20.75 -4 22 C-3.125 17.125 -3.125 17.125 -2 16 C-1.60006314 13.31137336 -1.24865457 10.63647783 -0.9375 7.9375 C-0.84662109 7.17888672 -0.75574219 6.42027344 -0.66210938 5.63867188 C-0.4375626 3.7595699 -0.21829022 1.87983905 0 0 Z " fill="#924666" transform="translate(143,163)"/>
<path d="M0 0 C0.66 0.33 1.32 0.66 2 1 C0 3 0 3 -2.3125 4 C-6.51736542 7.12920218 -7.84768047 11.26489704 -10 16 C-14.62 16 -19.24 16 -24 16 C-24 15.67 -24 15.34 -24 15 C-22.87851563 15.01353516 -22.87851563 15.01353516 -21.734375 15.02734375 C-18.69233863 14.93576412 -15.95789747 14.72869486 -13 14 C-10.92280107 11.1767451 -10.92280107 11.1767451 -10.1015625 8.98828125 C-7.88465432 4.9868406 -3.67982564 2.58688597 0 0 Z " fill="#A95778" transform="translate(169,250)"/>
<path d="M0 0 C1.25103516 0.48726562 1.25103516 0.48726562 2.52734375 0.984375 C6.36444638 2.10658724 9.57074766 2.26611202 13.5625 2.25 C15.48255859 2.25773438 15.48255859 2.25773438 17.44140625 2.265625 C20.76914848 2.01723151 23.02117957 1.44081142 26 0 C25 3 25 3 22.5625 4.6875 C17.93501394 6.39236329 13.87420366 6.26008597 9 6 C9 5.34 9 4.68 9 4 C6.69 4 4.38 4 2 4 C2 3.34 2 2.68 2 2 C1.34 2 0.68 2 0 2 C0 1.34 0 0.68 0 0 Z " fill="#EDC1D5" transform="translate(269,188)"/>
<path d="M0 0 C1.485 0.99 1.485 0.99 3 2 C3 2.66 3 3.32 3 4 C3.66 4 4.32 4 5 4 C7.29577377 10.60034959 7.99693553 17.09533583 6.25 23.9375 C4.81774994 26.3007126 3.32128603 27.52985218 1 29 C1 27.68 1 26.36 1 25 C1.99 25 2.98 25 4 25 C4 18.4 4 11.8 4 5 C3.01 4.67 2.02 4.34 1 4 C0.3125 1.9375 0.3125 1.9375 0 0 Z " fill="#B6456D" transform="translate(190,255)"/>
<path d="M0 0 C-1.15173355 2.46800047 -2.04783565 4.04783565 -4 6 C-10.16311834 6.6273833 -16.27268612 6.54547283 -22 4 C-21.67 3.34 -21.34 2.68 -21 2 C-20.01 2.33 -19.02 2.66 -18 3 C-11.1017861 3.69516884 -6.18387277 0 0 0 Z " fill="#FBECF6" transform="translate(137,287)"/>
<path d="M0 0 C2.5 1.5 2.5 1.5 4 3 C3.67 3.66 3.34 4.32 3 5 C2.16855469 4.7834375 2.16855469 4.7834375 1.3203125 4.5625 C0.59585937 4.376875 -0.12859375 4.19125 -0.875 4 C-1.95394531 3.7215625 -1.95394531 3.7215625 -3.0546875 3.4375 C-4.99289317 2.92686035 -4.99289317 2.92686035 -7 3 C-7.33 4.32 -7.66 5.64 -8 7 C-8.66 7 -9.32 7 -10 7 C-10.33 7.66 -10.66 8.32 -11 9 C-11.66 9 -12.32 9 -13 9 C-10.75992393 1.24589053 -8.44006853 -1.32459828 0 0 Z " fill="#E2BFD1" transform="translate(259,126)"/>
<path d="M0 0 C0.66 0 1.32 0 2 0 C1.95359375 1.04800781 1.9071875 2.09601563 1.859375 3.17578125 C1.82185452 4.55465901 1.78545464 5.93356758 1.75 7.3125 C1.71648437 8.00279297 1.68296875 8.69308594 1.6484375 9.40429688 C1.56118736 11.68993722 1.56118736 11.68993722 2 15 C3.90099676 16.88591992 3.90099676 16.88591992 6 18 C6 18.66 6 19.32 6 20 C4.35 20 2.7 20 1 20 C-1.20336689 16.45545326 -1.23908926 13.55995103 -1.1875 9.4375 C-1.18105469 8.30183594 -1.17460938 7.16617188 -1.16796875 5.99609375 C-1 3 -1 3 0 0 Z " fill="#510A2B" transform="translate(106,114)"/>
<path d="M0 0 C-0.66 0.66 -1.32 1.32 -2 2 C-2 1.34 -2 0.68 -2 0 C-6.62 0.33 -11.24 0.66 -16 1 C-16 1.66 -16 2.32 -16 3 C-18.64 3.33 -21.28 3.66 -24 4 C-18.97563905 -3.53654143 -7.60181221 -4.05429985 0 0 Z " fill="#6E2C48" transform="translate(239,153)"/>
<path d="M0 0 C3 1 3 1 4.1796875 2.578125 C5.32601294 5.9625144 5.21165138 9.22395529 5.125 12.75 C5.11597656 13.44738281 5.10695312 14.14476563 5.09765625 14.86328125 C5.07419888 16.57566958 5.03833104 18.28788004 5 20 C4.34 20 3.68 20 3 20 C2.67 21.32 2.34 22.64 2 24 C1.34 24 0.68 24 0 24 C0.33 23.195625 0.66 22.39125 1 21.5625 C3.08424716 14.13736949 1.94554236 7.34789659 0 0 Z " fill="#F0C3D7" transform="translate(194,110)"/>
<path d="M0 0 C1.98 0.99 1.98 0.99 4 2 C4 2.66 4 3.32 4 4 C4.78375 4.12375 5.5675 4.2475 6.375 4.375 C9 5 9 5 11 7 C11.125 10.625 11.125 10.625 11 14 C7.535 15.485 7.535 15.485 4 17 C4 16.34 4 15.68 4 15 C4.99 14.67 5.98 14.34 7 14 C8.20882096 11.99983534 8.20882096 11.99983534 9 10 C8.34 10 7.68 10 7 10 C7.33 8.68 7.66 7.36 8 6 C5.69 5.67 3.38 5.34 1 5 C0.67 3.35 0.34 1.7 0 0 Z " fill="#EACEDF" transform="translate(109,235)"/>
<path d="M0 0 C5.94 0.33 11.88 0.66 18 1 C17.67 1.66 17.34 2.32 17 3 C16.10539062 2.94199219 15.21078125 2.88398437 14.2890625 2.82421875 C5.84402722 2.50910549 0.13621278 3.39599175 -7 8 C-7 7.34 -7 6.68 -7 6 C-7.66 5.67 -8.32 5.34 -9 5 C-7.68 4.67 -6.36 4.34 -5 4 C-5 3.34 -5 2.68 -5 2 C-3.35 1.67 -1.7 1.34 0 1 C0 0.67 0 0.34 0 0 Z " fill="#F0CBDC" transform="translate(273,100)"/>
<path d="M0 0 C0.99 0.66 1.98 1.32 3 2 C2.54109375 2.35191406 2.0821875 2.70382813 1.609375 3.06640625 C-2.83872805 6.64544715 -5.44736238 9.89472477 -8 15 C-11.63 15 -15.26 15 -19 15 C-19 14.67 -19 14.34 -19 14 C-17.01432292 13.77213542 -15.02864583 13.54427083 -13.04296875 13.31640625 C-10.80603607 13.02829265 -10.80603607 13.02829265 -8 12 C-8 11.01 -8 10.02 -8 9 C-7.34 9 -6.68 9 -6 9 C-6 8.01 -6 7.02 -6 6 C-5.34 6 -4.68 6 -4 6 C-3.67 4.68 -3.34 3.36 -3 2 C-2.01 2 -1.02 2 0 2 C0 1.34 0 0.68 0 0 Z " fill="#F8DBEA" transform="translate(164,250)"/>
<path d="M0 0 C4.6027101 3.8759664 6.44080667 7.1177163 7 13 C6.8688244 15.75000285 6.48584892 18.27924606 6 21 C5.34 21 4.68 21 4 21 C3.96261719 20.32195312 3.92523438 19.64390625 3.88671875 18.9453125 C3.41514671 12.26933186 2.18078865 6.32291553 0 0 Z " fill="#B7295C" transform="translate(190,106)"/>
<path d="M0 0 C0.90878906 0.2165625 0.90878906 0.2165625 1.8359375 0.4375 C7.98654607 1.80009636 13.71013545 2.24088843 20 2 C18.90625 3.484375 18.90625 3.484375 17 5 C13.96875 5.328125 13.96875 5.328125 10.5 5.25 C9.3553125 5.23453125 8.210625 5.2190625 7.03125 5.203125 C4 5 4 5 1 4 C0.3125 1.9375 0.3125 1.9375 0 0 Z " fill="#9F2654" transform="translate(271,186)"/>
<path d="M0 0 C0.99 0.33 1.98 0.66 3 1 C3 1.99 3 2.98 3 4 C3.66 4 4.32 4 5 4 C5.05416741 6.72943537 5.09375225 9.45778564 5.125 12.1875 C5.15013672 13.34088867 5.15013672 13.34088867 5.17578125 14.51757812 C5.21214143 18.75353914 5.15445433 22.2151478 3 26 C0.375 27.3125 0.375 27.3125 -2 28 C-1.360625 27.2575 -0.72125 26.515 -0.0625 25.75 C4.39654727 19.80460364 3.50925523 11.95420453 2.5 4.875 C2.335 3.92625 2.17 2.9775 2 2 C1.34 2 0.68 2 0 2 C0 1.34 0 0.68 0 0 Z " fill="#E7B0C4" transform="translate(193,257)"/>
<path d="M0 0 C0.721875 0.268125 1.44375 0.53625 2.1875 0.8125 C1.1875 2.8125 1.1875 2.8125 -0.8125 3.75 C-3.15858221 4.7016846 -3.15858221 4.7016846 -3.8125 7.8125 C-4.4725 7.8125 -5.1325 7.8125 -5.8125 7.8125 C-6.4725 9.1325 -7.1325 10.4525 -7.8125 11.8125 C-8.1425 11.8125 -8.4725 11.8125 -8.8125 11.8125 C-8.56219935 7.55738892 -8.15040677 5.26304235 -5.5625 1.8125 C-2.8125 -0.1875 -2.8125 -0.1875 0 0 Z " fill="#652441" transform="translate(114.8125,154.1875)"/>
<path d="M0 0 C7.59 0 15.18 0 23 0 C23 1.32 23 2.64 23 4 C22.14664063 3.67386719 21.29328125 3.34773438 20.4140625 3.01171875 C16.87112909 1.96181057 14.05693761 1.76507457 10.375 1.8125 C9.26898438 1.81894531 8.16296875 1.82539062 7.0234375 1.83203125 C4.50442978 1.97197612 2.39985987 2.26833541 0 3 C0 3.66 0 4.32 0 5 C-1.32 5.33 -2.64 5.66 -4 6 C-3.67 5.01 -3.34 4.02 -3 3 C-2.34 3.33 -1.68 3.66 -1 4 C-0.67 2.68 -0.34 1.36 0 0 Z " fill="#DCB7CB" transform="translate(113,101)"/>
<path d="M0 0 C2.6875 -0.375 2.6875 -0.375 6 0 C8.16704095 1.81426684 9.38125003 3.61948534 11 6 C11 6.66 11 7.32 11 8 C11.66 8.33 12.32 8.66 13 9 C12.01 11.31 11.02 13.62 10 16 C7.55671553 12.3350733 8 10.30956914 8 6 C5.8614515 3.8614515 4.86724686 3.57344937 2 3 C2 2.34 2 1.68 2 1 C1.34 0.67 0.68 0.34 0 0 Z " fill="#691E40" transform="translate(111,236)"/>
<path d="M0 0 C1.41327251 4.52688851 1.02539946 9.01930407 0.9375 13.7109375 C0.99830961 16.91104322 1.39326176 19.86202566 2 23 C-0.95959587 20.65454952 -1.92566424 19.52853985 -2.4609375 15.72265625 C-2.43257812 14.51480469 -2.40421875 13.30695313 -2.375 12.0625 C-2.36210937 10.85722656 -2.34921875 9.65195313 -2.3359375 8.41015625 C-2.01936959 5.19662386 -1.37479103 2.89805949 0 0 Z " fill="#B26D8A" transform="translate(158,210)"/>
<path d="M0 0 C0.66 0.33 1.32 0.66 2 1 C0.74359102 4.76922693 -1.00824362 6.425698 -4 9 C-5.32 9 -6.64 9 -8 9 C-8 9.66 -8 10.32 -8 11 C-8.66 11 -9.32 11 -10 11 C-8.67367286 5.36310966 -4.53368235 3.06814317 0 0 Z " fill="#6C2F49" transform="translate(116,201)"/>
<path d="M0 0 C1.2684375 1.2375 1.2684375 1.2375 2.5625 2.5 C5.17506025 4.66786914 6.07717717 5.01197577 9.625 5.5625 C13.45663946 4.92389342 14.64637063 4.01264559 17 1 C17 2.98 17 4.96 17 7 C12.55491427 8.42242743 7.92067002 8.78796719 3.5625 7 C3.046875 6.67 2.53125 6.34 2 6 C2 5.34 2 4.68 2 4 C1.34 4 0.68 4 0 4 C0 2.68 0 1.36 0 0 Z " fill="#9E4366" transform="translate(247,161)"/>
<path d="M0 0 C1.28132812 0.00902344 2.56265625 0.01804687 3.8828125 0.02734375 C4.87023437 0.03894531 5.85765625 0.05054687 6.875 0.0625 C6.875 0.3925 6.875 0.7225 6.875 1.0625 C4.895 1.3925 2.915 1.7225 0.875 2.0625 C0.875 2.3925 0.875 2.7225 0.875 3.0625 C-1.435 3.0625 -3.745 3.0625 -6.125 3.0625 C-6.125 3.7225 -6.125 4.3825 -6.125 5.0625 C-6.785 5.0625 -7.445 5.0625 -8.125 5.0625 C-8.125 4.4025 -8.125 3.7425 -8.125 3.0625 C-9.115 4.0525 -10.105 5.0425 -11.125 6.0625 C-12.115 5.7325 -13.105 5.4025 -14.125 5.0625 C-8.90640511 0.80522522 -6.78391079 -0.06167192 0 0 Z " fill="#753150" transform="translate(229.125,101.9375)"/>
<path d="M0 0 C0.33 0 0.66 0 1 0 C1.12375 1.010625 1.2475 2.02125 1.375 3.0625 C2.70653349 8.03557585 6.69635114 9.88390692 10.8828125 12.421875 C11.93082031 13.20304687 11.93082031 13.20304687 13 14 C13 14.99 13 15.98 13 17 C12.34 17 11.68 17 11 17 C11 16.01 11 15.02 11 14 C10.113125 13.7525 9.22625 13.505 8.3125 13.25 C4.70851205 11.89000455 2.57530646 10.87828369 0 8 C-0.42383741 5.19945408 -0.23803646 2.85643751 0 0 Z " fill="#833C5C" transform="translate(128,243)"/>
<path d="M0 0 C0.99 0.495 0.99 0.495 2 1 C1.67 3.31 1.34 5.62 1 8 C1.7425 8.2475 2.485 8.495 3.25 8.75 C6.20124062 10.09147301 7.84814974 11.60905526 10 14 C9.01 14.495 9.01 14.495 8 15 C8 14.34 8 13.68 8 13 C7.05125 13.04125 6.1025 13.0825 5.125 13.125 C2 13 2 13 0 11 C-0.1953125 8.3984375 -0.1953125 8.3984375 -0.125 5.375 C-0.10695312 4.37210938 -0.08890625 3.36921875 -0.0703125 2.3359375 C-0.04710937 1.56507813 -0.02390625 0.79421875 0 0 Z " fill="#B03A66" transform="translate(180,241)"/>
<path d="M0 0 C2 1 2 1 2.61328125 2.77734375 C3.01318934 5.07580538 3.16776746 7.23011379 3.1875 9.5625 C3.20167969 10.32691406 3.21585938 11.09132812 3.23046875 11.87890625 C3 14 3 14 1 17 C0.10557408 13.80129036 -0.31324169 10.67963807 -0.625 7.375 C-0.72039062 6.41335937 -0.81578125 5.45171875 -0.9140625 4.4609375 C-1 2 -1 2 0 0 Z " fill="#8B3E5D" transform="translate(142,211)"/>
<path d="M0 0 C1.32 0 2.64 0 4 0 C4 0.66 4 1.32 4 2 C3.0409375 2.7734375 3.0409375 2.7734375 2.0625 3.5625 C-0.90810044 7.07320961 -0.80869688 10.52350694 -1 15 C-3.13586678 11.79619983 -3.23132175 10.98060033 -3.125 7.3125 C-3.10695313 6.50425781 -3.08890625 5.69601563 -3.0703125 4.86328125 C-3.04710938 4.24839844 -3.02390625 3.63351563 -3 3 C-2.01 2.67 -1.02 2.34 0 2 C0 1.34 0 0.68 0 0 Z " fill="#540C2B" transform="translate(108,210)"/>
<path d="M0 0 C0 0.33 0 0.66 0 1 C-0.68707031 1.06316406 -1.37414062 1.12632812 -2.08203125 1.19140625 C-7.32960579 1.69404067 -7.32960579 1.69404067 -11.33203125 4.69140625 C-12.25807418 6.82547627 -12.25807418 6.82547627 -13 10 C-13.66 10 -14.32 10 -15 10 C-15 7.36 -15 4.72 -15 2 C-10.13948404 -0.59227518 -5.34728867 -0.18689553 0 0 Z " fill="#842A4E" transform="translate(260,174)"/>
<path d="M0 0 C2.42130331 3.63195496 2.21022785 5.38349348 2.125 9.6875 C2.10695313 10.86699219 2.08890625 12.04648438 2.0703125 13.26171875 C2.03550781 14.61716797 2.03550781 14.61716797 2 16 C0.68 16.33 -0.64 16.66 -2 17 C-1.34 11.39 -0.68 5.78 0 0 Z " fill="#B32B5A" transform="translate(299,163)"/>
<path d="M0 0 C0.33 0.66 0.66 1.32 1 2 C0.67 2.78375 0.34 3.5675 0 4.375 C-1.25657259 8.93007565 -0.74711479 12.64256575 -0.19140625 17.29296875 C0 20 0 20 -1 23 C-4.16922063 17.82318542 -3.50076429 11.85676492 -3 6 C-2.25275963 3.58550655 -1.4378635 2.09688426 0 0 Z " fill="#6E4055" transform="translate(212,159)"/>
<path d="M0 0 C4.65987191 3.0657052 5.85485202 5.58657319 7 11 C7.66 11 8.32 11 9 11 C9 11.66 9 12.32 9 13 C7.35 12.67 5.7 12.34 4 12 C3.67 9.36 3.34 6.72 3 4 C1.68 4.33 0.36 4.66 -1 5 C-0.67 3.35 -0.34 1.7 0 0 Z " fill="#8E375B" transform="translate(138,107)"/>
<path d="M0 0 C0.90105469 0.00902344 1.80210937 0.01804688 2.73046875 0.02734375 C3.41753906 0.03894531 4.10460937 0.05054688 4.8125 0.0625 C4.8125 0.3925 4.8125 0.7225 4.8125 1.0625 C3.58273437 1.35253906 3.58273437 1.35253906 2.328125 1.6484375 C0.71164062 2.03902344 0.71164062 2.03902344 -0.9375 2.4375 C-2.53851563 2.82035156 -2.53851563 2.82035156 -4.171875 3.2109375 C-7.11545588 3.94050234 -7.11545588 3.94050234 -9.390625 5.1640625 C-11.1875 6.0625 -11.1875 6.0625 -14.1875 6.0625 C-9.33255997 1.85488531 -6.62430208 -0.0860299 0 0 Z " fill="#999FA2" transform="translate(281.1875,199.9375)"/>
<path d="M0 0 C0 0.33 0 0.66 0 1 C-0.86882812 1.09796875 -1.73765625 1.1959375 -2.6328125 1.296875 C-11.53942123 2.42136094 -11.53942123 2.42136094 -19 7 C-18.67 5.35 -18.34 3.7 -18 2 C-12.12116651 -0.61281488 -6.29268272 -0.18328202 0 0 Z " fill="#F8DAE7" transform="translate(181,199)"/>
<path d="M0 0 C2.38671875 0.3359375 2.38671875 0.3359375 5 1 C9.44100526 7.43180072 8.26027675 15.50981357 8 23 C7.67 23 7.34 23 7 23 C6.99742187 22.09378906 6.99484375 21.18757813 6.9921875 20.25390625 C6.72433637 11.81659552 5.57034131 6.43911014 0 0 Z " fill="#F5CCDC" transform="translate(295,155)"/>
<path d="M0 0 C1 3 1 3 0 6 C-3.63 6 -7.26 6 -11 6 C-11.66 4.68 -12.32 3.36 -13 2 C-9.37 2.66 -5.74 3.32 -2 4 C-2 3.01 -2 2.02 -2 1 C-1.34 0.67 -0.68 0.34 0 0 Z " fill="#E5B9CE" transform="translate(262,112)"/>
<path d="M0 0 C0 3 0 3 -1.6875 5.0625 C-4.06073778 7.05088841 -6.08060173 8.02686724 -9 9 C-9 10.65 -9 12.3 -9 14 C-9.33 14 -9.66 14 -10 14 C-10.125 7.25 -10.125 7.25 -9 5 C-6.67328135 3.98470459 -4.3396553 2.98511802 -2 2 C-1.34 1.34 -0.68 0.68 0 0 Z " fill="#F2C3D7" transform="translate(191,235)"/>
<path d="M0 0 C1.0209375 0.7425 1.0209375 0.7425 2.0625 1.5 C5.59465009 3.30365111 8.08636991 3.23021353 12 3 C12 3.66 12 4.32 12 5 C11.01 5.33 10.02 5.66 9 6 C9.99 6.66 10.98 7.32 12 8 C9.125 8.1875 9.125 8.1875 6 8 C5.34 7.01 4.68 6.02 4 5 C1.94996045 3.80767387 1.94996045 3.80767387 0 3 C0 2.01 0 1.02 0 0 Z " fill="#921344" transform="translate(248,165)"/>
<path d="M0 0 C1.98 0 3.96 0 6 0 C5.67 0.99 5.34 1.98 5 3 C4.01 3.4125 3.02 3.825 2 4.25 C0.515 5.11625 0.515 5.11625 -1 6 C-1.97873538 9.59385054 -1.97873538 9.59385054 -2 13 C-2.33 13 -2.66 13 -3 13 C-3 10.03 -3 7.06 -3 4 C-2.34 4 -1.68 4 -1 4 C-0.67 2.68 -0.34 1.36 0 0 Z " fill="#813A5B" transform="translate(131,137)"/>
<path d="M0 0 C0.99 0.33 1.98 0.66 3 1 C1.90259375 2.62957312 0.79681808 4.25351228 -0.3125 5.875 C-0.92738281 6.77992188 -1.54226562 7.68484375 -2.17578125 8.6171875 C-4 11 -4 11 -7 13 C-7 11.68 -7 10.36 -7 9 C-6.01 9 -5.02 9 -4 9 C-3.67 6.69 -3.34 4.38 -3 2 C-2.01 2 -1.02 2 0 2 C0 1.34 0 0.68 0 0 Z " fill="#7E2B4F" transform="translate(248,126)"/>
<path d="M0 0 C0.845625 0.495 1.69125 0.99 2.5625 1.5 C-0.14303429 2.85276714 -1.48389151 2.0907217 -4.4375 1.5 C-8.61409405 1.35083593 -12.372693 1.51459224 -16.4375 2.5 C-15.4375 0.5 -15.4375 0.5 -13.3125 -0.625 C-8.37614211 -2.12736979 -4.74311972 -2.06972497 0 0 Z " fill="#CACDCD" transform="translate(236.4375,249.5)"/>
<path d="M0 0 C4.47418228 3.30700429 6.86706719 5.33533596 8 11 C8.07522969 13.33212027 8.09325876 15.6685311 8 18 C7.67 18 7.34 18 7 18 C6.90203125 17.40832031 6.8040625 16.81664062 6.703125 16.20703125 C5.73033568 11.06634287 4.5992157 7.95913727 1 4 C1 3.34 1 2.68 1 2 C0.34 1.67 -0.32 1.34 -1 1 C-0.67 0.67 -0.34 0.34 0 0 Z " fill="#BE5A80" transform="translate(190,206)"/>
<path d="M0 0 C0.66 0.33 1.32 0.66 2 1 C-1.1941415 3.85514063 -3.24578714 4.38846809 -7.5 4.3125 C-8.4384375 4.30863281 -9.376875 4.30476562 -10.34375 4.30078125 C-13.02087334 3.9976364 -14.69965635 3.36176004 -17 2 C-16.02417969 1.93941406 -15.04835937 1.87882813 -14.04296875 1.81640625 C-12.77066406 1.73261719 -11.49835938 1.64882812 -10.1875 1.5625 C-8.92292969 1.48128906 -7.65835938 1.40007812 -6.35546875 1.31640625 C-3.00818107 1.12815453 -3.00818107 1.12815453 0 0 Z " fill="#D2ACBD" transform="translate(239,189)"/>
<path d="M0 0 C4.875 1.75 4.875 1.75 6 4 C8.32156597 4.40729228 10.6568787 4.74438677 13 5 C13 5.33 13 5.66 13 6 C11.2507786 6.08142927 9.50045458 6.13938541 7.75 6.1875 C6.77546875 6.22230469 5.8009375 6.25710937 4.796875 6.29296875 C1.62531258 5.96075202 0.32959693 5.11327721 -2 3 C-1.34 2.01 -0.68 1.02 0 0 Z " fill="#6D2745" transform="translate(219,185)"/>
<path d="M0 0 C0.86625 0.37125 0.86625 0.37125 1.75 0.75 C0.265 1.5234375 0.265 1.5234375 -1.25 2.3125 C-4.6451125 4.49415378 -4.6451125 4.49415378 -4.6875 8.375 C-4.45575315 11.61226088 -4.45575315 11.61226088 -3.25 13.75 C-4.57 13.42 -5.89 13.09 -7.25 12.75 C-6.90598492 4.70004713 -6.90598492 4.70004713 -4.4375 1.125 C-2.25 -0.25 -2.25 -0.25 0 0 Z " fill="#AA335F" transform="translate(291.25,138.25)"/>
<path d="M0 0 C3.63094642 2.64960955 5.89851796 5.01824456 8 9 C3.60316512 7.80086322 0.90159066 6.5711885 -2 3 C-2 2.34 -2 1.68 -2 1 C-1.34 0.67 -0.68 0.34 0 0 Z " fill="#9C3C5F" transform="translate(267,132)"/>
<path d="M0 0 C0.99 0.33 1.98 0.66 3 1 C-1.27152492 4.95897432 -4.31251115 6.74875245 -10 8 C-10 7.34 -10 6.68 -10 6 C-6.7508723 3.6791945 -3.94120709 2.56302958 0 2 C0 1.34 0 0.68 0 0 Z " fill="#7E2D51" transform="translate(138,282)"/>
<path d="M0 0 C2.26562673 2.26562673 2.94462749 3.84160705 3.09765625 7.04296875 C3.06510417 9.02864583 3.03255208 11.01432292 3 13 C2.01 12.67 1.02 12.34 0 12 C0 8.04 0 4.08 0 0 Z " fill="#530D2C" transform="translate(105,266)"/>
<path d="M0 0 C1.65 0 3.3 0 5 0 C4.67 2.31 4.34 4.62 4 7 C3.34 6.67 2.68 6.34 2 6 C1.67 8.97 1.34 11.94 1 15 C0.67 15 0.34 15 0 15 C0 10.05 0 5.1 0 0 Z " fill="#723652" transform="translate(104,262)"/>
<path d="M0 0 C1.37478516 0.01740234 1.37478516 0.01740234 2.77734375 0.03515625 C3.69644531 0.04417969 4.61554688 0.05320313 5.5625 0.0625 C6.27277344 0.07410156 6.98304688 0.08570313 7.71484375 0.09765625 C7.71484375 0.42765625 7.71484375 0.75765625 7.71484375 1.09765625 C6.10609375 1.19046875 6.10609375 1.19046875 4.46484375 1.28515625 C0.02849816 2.24636446 -0.77680315 3.47447955 -3.28515625 7.09765625 C-3.94515625 7.09765625 -4.60515625 7.09765625 -5.28515625 7.09765625 C-5.61515625 8.08765625 -5.94515625 9.07765625 -6.28515625 10.09765625 C-6.94515625 9.76765625 -7.60515625 9.43765625 -8.28515625 9.09765625 C-7.62515625 8.10765625 -6.96515625 7.11765625 -6.28515625 6.09765625 C-5.62515625 6.09765625 -4.96515625 6.09765625 -4.28515625 6.09765625 C-4.14078125 5.29328125 -3.99640625 4.48890625 -3.84765625 3.66015625 C-3.07303504 0.13132628 -3.07303504 0.13132628 0 0 Z " fill="#D4D9DE" transform="translate(252.28515625,224.90234375)"/>
<path d="M0 0 C1.1577506 3.47325181 1.06866652 6.36067448 1 10 C0.01 10.33 -0.98 10.66 -2 11 C-2.66 8.03 -3.32 5.06 -4 2 C-2.68 1.34 -1.36 0.68 0 0 Z " fill="#6A1238" transform="translate(123,189)"/>
<path d="M0 0 C1.32 0.33 2.64 0.66 4 1 C4 3.31 4 5.62 4 8 C2.02 8.99 2.02 8.99 0 10 C0 6.7 0 3.4 0 0 Z " fill="#EACADF" transform="translate(116,142)"/>
<path d="M0 0 C-0.721875 0.556875 -1.44375 1.11375 -2.1875 1.6875 C-4.97457299 3.97909334 -7.48641528 6.41459857 -10 9 C-10.33 8.01 -10.66 7.02 -11 6 C-10.34 6 -9.68 6 -9 6 C-8.9175 5.21625 -8.835 4.4325 -8.75 3.625 C-8 1 -8 1 -6.1875 -0.375 C-3.69465714 -1.08724082 -2.41283832 -0.86172797 0 0 Z " fill="#9E1C4E" transform="translate(172,105)"/>
<path d="M0 0 C2.20825321 2.20825321 3.47207088 4.60077349 4.98046875 7.3125 C6.10123754 9.16756559 7.34853764 10.59625699 9 12 C8.01 12.33 7.02 12.66 6 13 C2.50586395 10.13301658 0.71163126 8.15849852 0.1875 3.6875 C0.125625 2.470625 0.06375 1.25375 0 0 Z " fill="#581331" transform="translate(211,175)"/>
<path d="M0 0 C0.33 2.64 0.66 5.28 1 8 C0.525625 7.21625 0.05125 6.4325 -0.4375 5.625 C-3.90892793 2.0689031 -7.2045751 1.68652451 -12 1 C-12 0.67 -12 0.34 -12 0 C-7.6835078 -0.76173392 -4.25566547 -1.16063604 0 0 Z " fill="#953056" transform="translate(264,125)"/>
<path d="M0 0 C0.33 0 0.66 0 1 0 C1.12117188 0.66386719 1.24234375 1.32773438 1.3671875 2.01171875 C2.22547708 6.53424459 3.03971311 10.79938524 5 15 C4.01 15 3.02 15 2 15 C2 14.34 2 13.68 2 13 C1.34 13 0.68 13 0 13 C0 8.71 0 4.42 0 0 Z " fill="#682F4A" transform="translate(104,215)"/>
<path d="M0 0 C0.66 0 1.32 0 2 0 C0.0538131 4.77700421 -3.1444002 8.13405342 -7.8125 10.3125 C-8.8953125 10.6528125 -8.8953125 10.6528125 -10 11 C-9.67 10.34 -9.34 9.68 -9 9 C-8.34 9 -7.68 9 -7 9 C-7 8.01 -7 7.02 -7 6 C-6.21625 5.938125 -5.4325 5.87625 -4.625 5.8125 C-3.75875 5.544375 -2.8925 5.27625 -2 5 C-0.62533375 2.52363988 -0.62533375 2.52363988 0 0 Z " fill="#AE466D" transform="translate(298,180)"/>
<path d="M0 0 C1.51400391 0.01740234 1.51400391 0.01740234 3.05859375 0.03515625 C4.07050781 0.04417969 5.08242187 0.05320312 6.125 0.0625 C7.29869141 0.07990234 7.29869141 0.07990234 8.49609375 0.09765625 C8.49609375 0.42765625 8.49609375 0.75765625 8.49609375 1.09765625 C5.19609375 1.09765625 1.89609375 1.09765625 -1.50390625 1.09765625 C-2.16390625 3.40765625 -2.82390625 5.71765625 -3.50390625 8.09765625 C-4.82390625 8.42765625 -6.14390625 8.75765625 -7.50390625 9.09765625 C-6.86052145 7.78395425 -6.2141241 6.47172727 -5.56640625 5.16015625 C-5.20675781 4.42925781 -4.84710938 3.69835937 -4.4765625 2.9453125 C-2.98740616 0.1165135 -2.98740616 0.1165135 0 0 Z " fill="#F1CBDE" transform="translate(147.50390625,126.90234375)"/>
<path d="M0 0 C3.3 0 6.6 0 10 0 C10.33 0.66 10.66 1.32 11 2 C10.39671875 2.04898437 9.7934375 2.09796875 9.171875 2.1484375 C7.97304688 2.26058594 7.97304688 2.26058594 6.75 2.375 C5.56664062 2.47941406 5.56664062 2.47941406 4.359375 2.5859375 C1.914123 3.01507113 0.15163097 3.78600638 -2 5 C-1.34 3.35 -0.68 1.7 0 0 Z " fill="#D1D8DC" transform="translate(250,274)"/>
<path d="M0 0 C2.4375 0.375 2.4375 0.375 5 1 C6.4783226 3.95664519 6.06032783 6.74229737 6 10 C4.02 10.99 4.02 10.99 2 12 C2.66 8.7 3.32 5.4 4 2 C2.68 2 1.36 2 0 2 C0 1.34 0 0.68 0 0 Z " fill="#F6D0E2" transform="translate(166,239)"/>
<path d="M0 0 C0.66 0.33 1.32 0.66 2 1 C0.71937515 2.7074998 -0.61767557 4.37373596 -2 6 C-2.66 6 -3.32 6 -4 6 C-4 7.65 -4 9.3 -4 11 C-4.66 10.67 -5.32 10.34 -6 10 C-6.36627907 4.50581395 -6.36627907 4.50581395 -4.6875 2.1875 C-3 1 -3 1 0 0 Z " fill="#DBB2C9" transform="translate(134,189)"/>
<path d="M0 0 C0.39832031 0.48082031 0.79664063 0.96164063 1.20703125 1.45703125 C3.43450247 3.37391825 4.78834669 3.47741643 7.6875 3.6875 C8.49574219 3.75324219 9.30398438 3.81898437 10.13671875 3.88671875 C10.75160156 3.92410156 11.36648438 3.96148437 12 4 C11.67 4.66 11.34 5.32 11 6 C7.7 6 4.4 6 1 6 C0.67 4.02 0.34 2.04 0 0 Z " fill="#873054" transform="translate(248,114)"/>
<path d="M0 0 C0.33 0.66 0.66 1.32 1 2 C-2.1749094 3.9078584 -4.10585211 4.1609041 -7.75 3.625 C-8.54921875 3.51414062 -9.3484375 3.40328125 -10.171875 3.2890625 C-10.77515625 3.19367188 -11.3784375 3.09828125 -12 3 C-12 2.34 -12 1.68 -12 1 C-6.06 0.505 -6.06 0.505 0 0 Z " fill="#8B274D" transform="translate(157,265)"/>
<path d="M0 0 C0.99 0.33 1.98 0.66 3 1 C2.21654285 2.17219543 1.42297164 3.33763668 0.625 4.5 C0.18414062 5.1496875 -0.25671875 5.799375 -0.7109375 6.46875 C-1.13632812 6.9740625 -1.56171875 7.479375 -2 8 C-2.66 8 -3.32 8 -4 8 C-4 8.66 -4 9.32 -4 10 C-4.66 9.67 -5.32 9.34 -6 9 C-2.25 2.25 -2.25 2.25 0 0 Z " fill="#9E4366" transform="translate(268,106)"/>
<path d="M0 0 C0.66 0.33 1.32 0.66 2 1 C1.34 3.31 0.68 5.62 0 8 C1.98 8.66 3.96 9.32 6 10 C6 10.99 6 11.98 6 13 C3.08482708 11.92598892 1.22189824 11.22189824 -1 9 C-1.33870968 2.67741935 -1.33870968 2.67741935 0 0 Z " fill="#E5BED3" transform="translate(130,240)"/>
<path d="M0 0 C1.91697937 0.14166357 3.83357723 0.28849584 5.75 0.4375 C7.35101563 0.55931641 7.35101563 0.55931641 8.984375 0.68359375 C11.43679962 0.94090773 13.63921291 1.31812218 16 2 C12.99686252 3.50156874 10.20932478 3.09281204 6.875 3.0625 C5.59367188 3.05347656 4.31234375 3.04445312 2.9921875 3.03515625 C1.51105469 3.01775391 1.51105469 3.01775391 0 3 C0 2.01 0 1.02 0 0 Z " fill="#ECCFDC" transform="translate(220,141)"/>
<path d="M0 0 C0.33 0 0.66 0 1 0 C1.268125 0.94875 1.53625 1.8975 1.8125 2.875 C2.74986588 6.25267273 2.74986588 6.25267273 6 8 C6 8.66 6 9.32 6 10 C4.35 10 2.7 10 1 10 C-1.42857143 3.71428571 -1.42857143 3.71428571 0 0 Z " fill="#571835" transform="translate(106,124)"/>
<path d="M0 0 C0.66 0 1.32 0 2 0 C2 0.66 2 1.32 2 2 C2.66 2.33 3.32 2.66 4 3 C-0.43076923 6.07692308 -0.43076923 6.07692308 -3.3125 5.6875 C-3.869375 5.460625 -4.42625 5.23375 -5 5 C-4.67 4.34 -4.34 3.68 -4 3 C-3.01 3 -2.02 3 -1 3 C-0.67 2.01 -0.34 1.02 0 0 Z " fill="#5C092E" transform="translate(219,105)"/>
<path d="M0 0 C0.99 0.33 1.98 0.66 3 1 C0.19195732 3.96404505 -2.18315774 6.44499019 -6 8 C-6 6.68 -6 5.36 -6 4 C-4.68 4 -3.36 4 -2 4 C-2 3.34 -2 2.68 -2 2 C-1.34 2 -0.68 2 0 2 C0 1.34 0 0.68 0 0 Z " fill="#7F3454" transform="translate(138,232)"/>
<path d="M0 0 C1.98 0 3.96 0 6 0 C6 2.31 6 4.62 6 7 C1.125 3.375 1.125 3.375 0 0 Z " fill="#672A46" transform="translate(106,181)"/>
<path d="M0 0 C2.74501997 3.61186839 5.37012014 7.30395263 8 11 C6.68 11 5.36 11 4 11 C3.67 10.01 3.34 9.02 3 8 C2.34 7.67 1.68 7.34 1 7 C0.59270772 4.67843403 0.25561323 2.3431213 0 0 Z " fill="#DCC4D4" transform="translate(209,128)"/>
<path d="M0 0 C2.31 0.33 4.62 0.66 7 1 C7 2.32 7 3.64 7 5 C7.66 5 8.32 5 9 5 C8.67 5.99 8.34 6.98 8 8 C8 7.34 8 6.68 8 6 C7.4225 5.7525 6.845 5.505 6.25 5.25 C3.6997003 3.83316683 1.98214299 2.12372463 0 0 Z " fill="#F4C9D8" transform="translate(291,103)"/>
<path d="M0 0 C-0.9075 0.598125 -1.815 1.19625 -2.75 1.8125 C-5.22901481 3.48106766 -7.63317911 5.17936855 -10 7 C-10 5.68 -10 4.36 -10 3 C-9.34 3 -8.68 3 -8 3 C-8 2.34 -8 1.68 -8 1 C-3.375 -1.125 -3.375 -1.125 0 0 Z " fill="#EFD5E4" transform="translate(222,103)"/>
<path d="M0 0 C0.33 0 0.66 0 1 0 C1.3125 2.75 1.3125 2.75 1 6 C-1.5 8.375 -1.5 8.375 -4 10 C-4.66 9.67 -5.32 9.34 -6 9 C-5.071875 7.88625 -5.071875 7.88625 -4.125 6.75 C-2.39562719 4.51198812 -1.13893339 2.56260013 0 0 Z " fill="#ECCADC" transform="translate(143,277)"/>
<path d="M0 0 C2 0 2 0 4.625 2.3125 C7 5 7 5 7 8 C6.01 8 5.02 8 4 8 C0 2.74285714 0 2.74285714 0 0 Z " fill="#933056" transform="translate(157,276)"/>
<path d="M0 0 C0.33 0 0.66 0 1 0 C1 2.97 1 5.94 1 9 C-0.97746603 9.73080266 -2.98072489 10.39421747 -5 11 C-5.66 10.67 -6.32 10.34 -7 10 C-2.25 7 -2.25 7 0 7 C0 4.69 0 2.38 0 0 Z " fill="#B3577A" transform="translate(277,144)"/>
<path d="M0 0 C0.99 0.33 1.98 0.66 3 1 C2.34 2.32 1.68 3.64 1 5 C-2.63 5 -6.26 5 -10 5 C-10 4.67 -10 4.34 -10 4 C-6.97265625 3.75585938 -6.97265625 3.75585938 -3.9453125 3.51171875 C-1.60480784 3.12606964 -1.60480784 3.12606964 0 0 Z " fill="#FBDCEC" transform="translate(155,112)"/>
<path d="M0 0 C1.27433584 2.54867169 1.27570202 4.17405433 1 7 C-0.5 8.8125 -0.5 8.8125 -2 10 C-2.66 9.67 -3.32 9.34 -4 9 C-2.80100302 5.9168649 -1.52299523 2.93720508 0 0 Z " fill="#8A9296" transform="translate(265,257)"/>
<path d="M0 0 C1.98 0.99 1.98 0.99 4 2 C4 2.66 4 3.32 4 4 C5.65 4.33 7.3 4.66 9 5 C5.71023192 6.09658936 4.28696233 5.79953138 1 5 C0.67 3.35 0.34 1.7 0 0 Z " fill="#E5C5D7" transform="translate(109,235)"/>
<path d="M0 0 C0.66 1.32 1.32 2.64 2 4 C0.35 5.32 -1.3 6.64 -3 8 C-3.99 7.34 -4.98 6.68 -6 6 C-4 4 -2 2 0 0 Z " fill="#EED6E2" transform="translate(141,232)"/>
<path d="M0 0 C0.33 0.66 0.66 1.32 1 2 C1.66 2.28875 2.32 2.5775 3 2.875 C5 4 5 4 5.75 6.125 C5.8325 6.74375 5.915 7.3625 6 8 C3.11562221 6.70700306 1.12780579 5.34058637 -1 3 C-0.67 2.01 -0.34 1.02 0 0 Z " fill="#9A3459" transform="translate(266,181)"/>
<path d="M0 0 C-1.75 3.875 -1.75 3.875 -4 5 C-5.67654729 4.72057545 -7.34608154 4.39171753 -9 4 C-6.43425105 1.43425105 -3.68548192 0 0 0 Z " fill="#E7C5D9" transform="translate(137,287)"/>
<path d="M0 0 C0.66 0.66 1.32 1.32 2 2 C-1.87564767 5.61139896 -1.87564767 5.61139896 -4 7 C-6.375 6.8125 -6.375 6.8125 -8 6 C-7.05125 5.38125 -6.1025 4.7625 -5.125 4.125 C-2.05554891 2.18029031 -2.05554891 2.18029031 0 0 Z " fill="#E4E6EA" transform="translate(246,282)"/>
<path d="M0 0 C0.95412881 2.57614778 1.01981848 3.91676239 0.375 6.625 C-1.33984343 9.58700229 -2.77611813 10.06677104 -6 11 C-5.38125 10.29875 -4.7625 9.5975 -4.125 8.875 C-1.9572991 5.94222819 -0.97344445 3.48817594 0 0 Z " fill="#F4CBDB" transform="translate(197,274)"/>
<path d="M0 0 C4.28324091 2.51407619 6.64531705 4.12314139 8 9 C7.01 8.67 6.02 8.34 5 8 C5 7.34 5 6.68 5 6 C4.360625 5.7525 3.72125 5.505 3.0625 5.25 C1 4 1 4 0.25 1.875 C0.1675 1.25625 0.085 0.6375 0 0 Z " fill="#B64F72" transform="translate(293,105)"/>
<path d="M0 0 C1.65 0 3.3 0 5 0 C3.625 1.5 3.625 1.5 2 3 C1.34 3 0.68 3 0 3 C0 3.66 0 4.32 0 5 C-1.32 5.33 -2.64 5.66 -4 6 C-3.67 5.01 -3.34 4.02 -3 3 C-2.34 3.33 -1.68 3.66 -1 4 C-0.67 2.68 -0.34 1.36 0 0 Z " fill="#EDD6E4" transform="translate(113,101)"/>
<path d="M0 0 C0.66 0.33 1.32 0.66 2 1 C0.02 3.31 -1.96 5.62 -4 8 C-4.99 7.67 -5.98 7.34 -7 7 C-6.34 7 -5.68 7 -5 7 C-5 6.34 -5 5.68 -5 5 C-4.34 5 -3.68 5 -3 5 C-3 4.01 -3 3.02 -3 2 C-2.01 2 -1.02 2 0 2 C0 1.34 0 0.68 0 0 Z " fill="#B0466C" transform="translate(192,231)"/>
<path d="M0 0 C1.32 1.32 2.64 2.64 4 4 C2.02 4.99 0.04 5.98 -2 7 C-1.125 2.25 -1.125 2.25 0 0 Z " fill="#80274E" transform="translate(242,106)"/>
<path d="M0 0 C1.9375 0.8125 1.9375 0.8125 4 2 C4.33 2.99 4.66 3.98 5 5 C6.65 5 8.3 5 10 5 C10 5.33 10 5.66 10 6 C8.02 6 6.04 6 4 6 C3.67 5.01 3.34 4.02 3 3 C2.01 3 1.02 3 0 3 C0 2.01 0 1.02 0 0 Z " fill="#9E1E4E" transform="translate(164,282)"/>
<path d="M0 0 C2.40072955 2.88087546 4.47291037 5.56404834 6 9 C5.34 9 4.68 9 4 9 C3.67 8.34 3.34 7.68 3 7 C2.01 6.67 1.02 6.34 0 6 C0 4.02 0 2.04 0 0 Z " fill="#EBC1D4" transform="translate(156,276)"/>
<path d="M0 0 C0.66 0.33 1.32 0.66 2 1 C2 1.99 2 2.98 2 4 C1.2575 3.95875 0.515 3.9175 -0.25 3.875 C-3.08758952 4.00398134 -4.58773938 4.57051222 -7 6 C-5.01180815 3.01771223 -3.42353587 1.21480305 0 0 Z " fill="#7B445E" transform="translate(118,249)"/>
<path d="M0 0 C0.33 0.66 0.66 1.32 1 2 C-0.98 4.97 -0.98 4.97 -3 8 C-4.32 7.34 -5.64 6.68 -7 6 C-4.69 4.02 -2.38 2.04 0 0 Z " fill="#DCE1E5" transform="translate(299,232)"/>
<path d="M0 0 C0.99 0.33 1.98 0.66 3 1 C2.01 2.485 2.01 2.485 1 4 C0.34 4 -0.32 4 -1 4 C-1.33 5.65 -1.66 7.3 -2 9 C-2.33 9 -2.66 9 -3 9 C-3 7.02 -3 5.04 -3 3 C-2.34 3 -1.68 3 -1 3 C-0.67 2.01 -0.34 1.02 0 0 Z " fill="#F7D4E5" transform="translate(159,206)"/>
<path d="M0 0 C0.66 0.33 1.32 0.66 2 1 C2.33 1.99 2.66 2.98 3 4 C1.35 4.33 -0.3 4.66 -2 5 C-2 5.66 -2 6.32 -2 7 C-2.66 7 -3.32 7 -4 7 C-3.43628586 3.73045798 -2.50037734 2.17424117 0 0 Z " fill="#A24467" transform="translate(268,155)"/>
<path d="M0 0 C0.33 0 0.66 0 1 0 C1 1.98 1 3.96 1 6 C-0.98 6.99 -0.98 6.99 -3 8 C-2.45276317 4.62537285 -1.9451 2.91765 0 0 Z " fill="#F5CADD" transform="translate(301,129)"/>
<path d="M0 0 C2.97 0 5.94 0 9 0 C9.66 1.32 10.32 2.64 11 4 C7.37 3.01 3.74 2.02 0 1 C0 0.67 0 0.34 0 0 Z " fill="#F6D6E5" transform="translate(252,127)"/>
<path d="M0 0 C0.33 0.66 0.66 1.32 1 2 C0.0625 4.125 0.0625 4.125 -1 6 C-1.66 6 -2.32 6 -3 6 C-3.33 7.32 -3.66 8.64 -4 10 C-4.33 9.34 -4.66 8.68 -5 8 C-3.62292893 4.85240898 -2.43840236 2.43840236 0 0 Z " fill="#77425D" transform="translate(214,108)"/>
<path d="M0 0 C0.66 0.33 1.32 0.66 2 1 C2.40729228 3.32156597 2.74438677 5.6568787 3 8 C2.01 8.495 2.01 8.495 1 9 C0.34 8.34 -0.32 7.68 -1 7 C-0.625 3.375 -0.625 3.375 0 0 Z " fill="#8E5470" transform="translate(119,193)"/>
<path d="M0 0 C2.31 1.98 4.62 3.96 7 6 C6.67 6.66 6.34 7.32 6 8 C4.68 7.34 3.36 6.68 2 6 C2 5.34 2 4.68 2 4 C1.34 4 0.68 4 0 4 C0 2.68 0 1.36 0 0 Z " fill="#8E3D5F" transform="translate(247,161)"/>
<path d="M0 0 C2.5625 2.25 2.5625 2.25 5 5 C4.8125 7.3125 4.8125 7.3125 4 9 C2 8 2 8 1.3671875 6.15234375 C1.20476562 5.42144531 1.04234375 4.69054687 0.875 3.9375 C0.70742188 3.20402344 0.53984375 2.47054687 0.3671875 1.71484375 C0.24601562 1.14894531 0.12484375 0.58304688 0 0 Z " fill="#B74B70" transform="translate(296,157)"/>
<path d="M0 0 C5.57142857 5.14285714 5.57142857 5.14285714 6 9 C4.125 8.4375 4.125 8.4375 2 7 C0.75 3.375 0.75 3.375 0 0 Z " fill="#BC557B" transform="translate(190,106)"/>
<path d="M0 0 C0.66 0 1.32 0 2 0 C1.8125 1.8125 1.8125 1.8125 1 4 C-1.5625 5.75 -1.5625 5.75 -4 7 C-4.66 6.34 -5.32 5.68 -6 5 C-4.68 5 -3.36 5 -2 5 C-1.34 3.35 -0.68 1.7 0 0 Z " fill="#B13864" transform="translate(189,282)"/>
<path d="M0 0 C0.33 0 0.66 0 1 0 C1.125 3.375 1.125 3.375 1 7 C0.34 7.66 -0.32 8.32 -1 9 C-1.625 6.1875 -1.625 6.1875 -2 3 C-1.34 2.01 -0.68 1.02 0 0 Z " fill="#812047" transform="translate(142,272)"/>
<path d="M0 0 C-1.25 1.5 -1.25 1.5 -3 3 C-4.32 3 -5.64 3 -7 3 C-6.67 2.01 -6.34 1.02 -6 0 C-3.50907189 -1.24546405 -2.58919267 -0.7767578 0 0 Z " fill="#9E1C4C" transform="translate(276,155)"/>
</svg>
