<?xml version="1.0" encoding="UTF-8"?>
<svg version="1.1" xmlns="http://www.w3.org/2000/svg" width="100" height="100">
<path d="M0 0 C33 0 66 0 100 0 C100 33 100 66 100 100 C67 100 34 100 0 100 C0 67 0 34 0 0 Z " fill="#FED242" transform="translate(0,0)"/>
<path d="M0 0 C2.8125 1.3125 2.8125 1.3125 5 3 C5.763125 3.556875 6.52625 4.11375 7.3125 4.6875 C7.869375 5.120625 8.42625 5.55375 9 6 C9.804375 5.01 10.60875 4.02 11.4375 3 C14.08633715 0.34488598 15.80533477 -0.46825672 19.5625 -0.5625 C25.10393362 -0.17133998 28.20622193 2.13034637 32 6 C32.40089844 5.566875 32.80179688 5.13375 33.21484375 4.6875 C36.52145393 1.44837166 38.88481361 -0.44339984 43.625 -0.5625 C48.39294101 -0.21382404 51.40821079 1.19415601 54.59765625 4.8125 C57.08148393 8.68699442 56.80076159 12.57225942 56 17 C54.46519611 20.09368314 52.29515158 22.43933088 50 25 C49.14366826 26.03905652 48.29245491 27.08234414 47.4453125 28.12890625 C39.59691197 37.77643232 39.59691197 37.77643232 36.046875 38.2734375 C31.80889514 38.46083117 28.92906044 38.4555608 25.5625 35.6875 C23 33 23 33 21 30 C16.99245833 31.33584722 15.62523764 33.76893828 13 37 C10.74224185 38.12887908 9.26243075 38.26390612 6.75 38.375 C6.00234375 38.42398438 5.2546875 38.47296875 4.484375 38.5234375 C-1.86770318 37.18510656 -6.05873094 30.76674294 -9.8125 25.875 C-10.30169922 25.25496094 -10.79089844 24.63492188 -11.29492188 23.99609375 C-15.16671975 19.01577284 -16.39980556 15.48895246 -16.359375 9.29296875 C-15.74961638 5.40244364 -13.81165184 3.67776365 -11 1 C-7.55420983 -0.72289508 -3.77524738 -0.37359219 0 0 Z " fill="#7A2B62" transform="translate(30,22)"/>
<path d="M0 0 C0.33 0 0.66 0 1 0 C1 14.19 1 28.38 1 43 C-9.89 43 -20.78 43 -32 43 C-31.34 41.68 -30.68 40.36 -30 39 C-29.34 39 -28.68 39 -28 39 C-27.773125 38.32582031 -27.54625 37.65164062 -27.3125 36.95703125 C-25.6363107 33.18061666 -23.40895459 30.02906415 -21 26.6875 C-20.54882812 26.04232422 -20.09765625 25.39714844 -19.6328125 24.73242188 C-18.47579063 23.11498745 -17.24333423 21.55206756 -16 20 C-15.34 20 -14.68 20 -14 20 C-13.74992187 19.45214844 -13.49984375 18.90429688 -13.2421875 18.33984375 C-11.76074852 15.54933448 -9.99614387 13.10796176 -8.125 10.5625 C-7.44695312 9.63566406 -6.76890625 8.70882812 -6.0703125 7.75390625 C-4.09371786 5.12466244 -2.11359888 2.52076404 0 0 Z " fill="#F6B92C" transform="translate(99,57)"/>
<path d="M0 0 C4.34024243 0.64168893 5.66070006 2.10838454 8.35546875 5.49609375 C9.66796875 7.80859375 9.66796875 7.80859375 10.35546875 9.49609375 C9.64519531 9.84800781 8.93492188 10.19992188 8.203125 10.5625 C4.58029588 13.0224457 2.38610806 15.94850083 -0.20703125 19.43359375 C-8.30581125 30.16141375 -8.30581125 30.16141375 -12.89453125 31.30859375 C-18.56952988 30.07901071 -21.40424431 26.15874041 -24.64453125 21.49609375 C-24.64453125 20.83609375 -24.64453125 20.17609375 -24.64453125 19.49609375 C-23.75765625 19.26921875 -22.87078125 19.04234375 -21.95703125 18.80859375 C-15.43849669 16.22577817 -11.56567933 10.06814475 -7.5703125 4.51757812 C-5.13463181 1.40531946 -3.97377533 0.54091047 0 0 Z " fill="#F9AB46" transform="translate(49.64453125,25.50390625)"/>
<path d="M0 0 C1.32 0.66 2.64 1.32 4 2 C3.01 2.495 3.01 2.495 2 3 C1.34 2.67 0.68 2.34 0 2 C-0.433125 2.8971875 -0.433125 2.8971875 -0.875 3.8125 C-2 6 -2 6 -4 9 C-1.18490007 11.2773501 -1.18490007 11.2773501 2 11 C2 15.62 2 20.24 2 25 C-2.39412669 25.51695608 -6.57386023 26 -11 26 C-11.66 25.34 -12.32 24.68 -13 24 C-16.58343976 23.83322718 -16.58343976 23.83322718 -20 24 C-20.66 20.7 -21.32 17.4 -22 14 C-16.75614911 12.2520497 -12.52677733 11.80607799 -7 12 C-7 11.34 -7 10.68 -7 10 C-9.64 10 -12.28 10 -15 10 C-15 9.67 -15 9.34 -15 9 C-14.41992188 8.93683594 -13.83984375 8.87367187 -13.2421875 8.80859375 C-7.3262825 7.8811829 -4.59835273 6.24442504 -0.99609375 1.4609375 C-0.66738281 0.97882812 -0.33867188 0.49671875 0 0 Z " fill="#CBBB62" transform="translate(49,51)"/>
<path d="M0 0 C2.5 0.9375 2.5 0.9375 4 3 C4.89352323 6.2085607 4.82103635 8.77556634 4 12 C1.72831904 15.70793265 -1.07702642 18.79498511 -4 22 C-4.63164063 22.79535156 -5.26328125 23.59070313 -5.9140625 24.41015625 C-6.49929687 25.14105469 -7.08453125 25.87195313 -7.6875 26.625 C-8.20699219 27.27726562 -8.72648437 27.92953125 -9.26171875 28.6015625 C-11.57272941 30.4607576 -13.11382022 30.26550887 -16 30 C-15.66362604 26.38397989 -15.33632816 24.40989995 -13 21.5625 C-10.46008955 18.30823973 -10.0745222 16.09872092 -10 12 C-11.43990623 9.82967524 -11.43990623 9.82967524 -13 8 C-12.9142202 5.2550463 -12.00473033 4.00681168 -10.4375 1.75 C-6.97182249 -0.73817872 -4.13398254 -0.66075951 0 0 Z " fill="#3FB1BA" transform="translate(78,26)"/>
<path d="M0 0 C3.90765506 0.64312033 6.20319257 2.24713503 8.78125 5.171875 C11.26223304 9.04193211 10.99438032 12.9369028 10.18359375 17.359375 C8.61045656 20.42497568 6.46780075 22.79800481 4.18359375 25.359375 C2.71825277 27.18711214 1.26001457 29.02056429 -0.19140625 30.859375 C-1.3985206 32.36035614 -2.60641814 33.86070952 -3.81640625 35.359375 C-4.80640625 35.029375 -5.79640625 34.699375 -6.81640625 34.359375 C-6.23223461 31.29153973 -5.39021448 29.54065813 -3.3125 27.22265625 C3.3887837 20.11382293 3.3887837 20.11382293 6.05859375 11.109375 C5.58104598 7.13016942 5.58104598 7.13016942 2.18359375 5.359375 C-3.47337695 4.73806587 -3.47337695 4.73806587 -8.37890625 7.109375 C-10.02873746 9.20539818 -10.02873746 9.20539818 -9.69140625 11.421875 C-8.76561468 13.61222866 -8.76561468 13.61222866 -6.81640625 16.359375 C-6.9189806 21.69324098 -8.38247636 24.69130342 -11.66015625 28.68359375 C-12.95167956 30.5554299 -13.39104573 32.14073318 -13.81640625 34.359375 C-11.83640625 34.359375 -9.85640625 34.359375 -7.81640625 34.359375 C-8.14640625 35.349375 -8.47640625 36.339375 -8.81640625 37.359375 C-11.62890625 37.609375 -11.62890625 37.609375 -14.81640625 37.359375 C-17.03514751 35.36250786 -17.67814655 33.927776 -18.37890625 31.046875 C-17.51944701 26.94056972 -14.9026649 24.13380959 -11.81640625 21.359375 C-11.15640625 21.359375 -10.49640625 21.359375 -9.81640625 21.359375 C-9.64953177 18.94291718 -9.64953177 18.94291718 -9.81640625 16.359375 C-10.47640625 15.699375 -11.13640625 15.039375 -11.81640625 14.359375 C-12.07363723 9.99502268 -11.22876002 6.20126394 -9.31640625 2.296875 C-6.09343795 -0.20092543 -3.99217277 -0.23599051 0 0 Z " fill="#304B8B" transform="translate(75.81640625,21.640625)"/>
<path d="M0 0 C9.51724138 -0.55983773 9.51724138 -0.55983773 14 3 C15.8125 4.6875 15.8125 4.6875 17 6 C18.65 4.35 20.3 2.7 22 1 C22.66 1.33 23.32 1.66 24 2 C23.52175781 2.40089844 23.04351562 2.80179688 22.55078125 3.21484375 C20.65771759 5.39401275 20.464104 6.71676059 20.1875 9.5625 C20.09855469 10.34753906 20.00960937 11.13257813 19.91796875 11.94140625 C19.77596958 14.22823056 19.77596958 14.22823056 22 16 C22.125 19.125 22.125 19.125 22 22 C21.4225 22.061875 20.845 22.12375 20.25 22.1875 C16.17399161 23.65939192 14.32364743 27.51452885 12 31 C11.401875 30.54625 10.80375 30.0925 10.1875 29.625 C8.49409348 28.36704087 6.75522914 27.17015276 5 26 C5.66 26 6.32 26 7 26 C6.34 24.35 5.68 22.7 5 21 C5.90484792 19.84481082 6.8244206 18.70114594 7.75 17.5625 C8.26046875 16.92441406 8.7709375 16.28632812 9.296875 15.62890625 C11.19667629 13.81189446 12.43586908 13.39576803 15 13 C12.14976957 7.96459291 10.33345714 5.71224067 4.6875 4.0625 C3.13095387 3.68302087 1.56984042 3.32006455 0 3 C0 2.01 0 1.02 0 0 Z " fill="#5F3E7C" transform="translate(45,22)"/>
<path d="M0 0 C12.87 0 25.74 0 39 0 C39 4.29 39 8.58 39 13 C32.25137615 11.87522936 32.25137615 11.87522936 29.00390625 10.765625 C28.28702637 10.52344238 27.57014648 10.28125977 26.83154297 10.03173828 C25.7083667 9.64477783 25.7083667 9.64477783 24.5625 9.25 C22.97268203 8.71086148 21.3828378 8.17180037 19.79296875 7.6328125 C18.99681152 7.36114258 18.2006543 7.08947266 17.38037109 6.80957031 C13.71772331 5.56389441 10.04634086 4.34476204 6.375 3.125 C4.25 2.41666667 2.125 1.70833333 0 1 C0 0.67 0 0.34 0 0 Z " fill="#473A83" transform="translate(61,0)"/>
<path d="M0 0 C0.33 0.66 0.66 1.32 1 2 C4.10211951 3.06358383 5.64070776 3.13065173 8.75 2 C13.06254804 0.67306214 16.6085408 1.27784893 21 2 C20.67 2.66 20.34 3.32 20 4 C19.77377919 5.70363822 19.59111527 7.41328701 19.4375 9.125 C19.35371094 10.03507812 19.26992187 10.94515625 19.18359375 11.8828125 C19.09271484 12.93082031 19.09271484 12.93082031 19 14 C19.66 14.33 20.32 14.66 21 15 C17.7 15.33 14.4 15.66 11 16 C11 16.66 11 17.32 11 18 C9.35 17.67 7.7 17.34 6 17 C6 16.34 6 15.68 6 15 C3.69 15 1.38 15 -1 15 C-0.67 10.05 -0.34 5.1 0 0 Z " fill="#FAAC66" transform="translate(51,62)"/>
<path d="M0 0 C0.33 0 0.66 0 1 0 C1 9.9 1 19.8 1 30 C-4.61 30 -10.22 30 -16 30 C-10.98177955 19.78433694 -5.76438829 9.81172475 0 0 Z " fill="#BC1A3F" transform="translate(99,70)"/>
<path d="M0 0 C4.1984347 1.01073428 5.70886294 2.46078484 8.375 5.8125 C9.6875 8.125 9.6875 8.125 10.375 9.8125 C9.66472656 10.16441406 8.95445313 10.51632813 8.22265625 10.87890625 C4.59982713 13.33885195 2.40563931 16.26490708 -0.1875 19.75 C-6.71101299 28.39118708 -6.71101299 28.39118708 -9.625 30.8125 C-13.375 31.0625 -13.375 31.0625 -16.625 30.8125 C-16.955 30.1525 -17.285 29.4925 -17.625 28.8125 C-16.51125 28.52375 -15.3975 28.235 -14.25 27.9375 C-10.62208908 27.12008671 -10.62208908 27.12008671 -8.625 24.8125 C-8.23814253 22.74313831 -8.23814253 22.74313831 -8.125 20.4375 C-7.8964975 17.02138765 -7.17201673 14.84415375 -5.625 11.8125 C-5.625 10.8225 -5.625 9.8325 -5.625 8.8125 C-3.96885343 8.43031233 -2.30042976 8.09854898 -0.625 7.8125 C-0.295 8.1425 0.035 8.4725 0.375 8.8125 C2.38220923 8.52575582 4.3835944 8.19383299 6.375 7.8125 C6.045 7.1525 5.715 6.4925 5.375 5.8125 C4.385 5.4825 3.395 5.1525 2.375 4.8125 C2.375 3.8225 2.375 2.8325 2.375 1.8125 C-1.71463819 4.09788605 -5.08862104 6.76956926 -8.625 9.8125 C-9.285 9.4825 -9.945 9.1525 -10.625 8.8125 C-4.97166237 1.11433812 -4.97166237 1.11433812 0 0 Z " fill="#F6AE50" transform="translate(49.625,25.1875)"/>
<path d="M0 0 C2.234375 0.41796875 2.234375 0.41796875 5.359375 2.60546875 C7.234375 5.41796875 7.234375 5.41796875 7.359375 7.91796875 C5.8049137 11.3723272 4.28588288 13.14556926 1.234375 15.41796875 C-1.72836484 16.03592813 -3.67142503 15.81722036 -6.765625 15.41796875 C-8.96039025 13.82177584 -9.66785026 12.94710264 -10.1640625 10.26171875 C-10.15632813 9.48828125 -10.14859375 8.71484375 -10.140625 7.91796875 C-10.14835937 7.14453125 -10.15609375 6.37109375 -10.1640625 5.57421875 C-9.11562208 -0.09969412 -4.93331534 -0.16928043 0 0 Z " fill="#CC1F48" transform="translate(27.765625,25.58203125)"/>
<path d="M0 0 C0.77085938 -0.01417969 1.54171875 -0.02835938 2.3359375 -0.04296875 C4.84334888 0.20948393 6.45761902 0.93556533 8.625 2.1875 C8.625 3.5075 8.625 4.8275 8.625 6.1875 C9.285 6.5175 9.945 6.8475 10.625 7.1875 C10.625 9.1675 10.625 11.1475 10.625 13.1875 C9.635 13.6825 9.635 13.6825 8.625 14.1875 C8.7075 13.445 8.79 12.7025 8.875 11.9375 C8.82688133 9.12641174 8.82688133 9.12641174 7.1875 6.875 C3.51523122 4.45667665 -0.07978108 4.47439416 -4.375 5.1875 C-6.56439909 6.96857249 -6.56439909 6.96857249 -6.640625 9.28125 C-6.63546875 10.0753125 -6.6303125 10.869375 -6.625 11.6875 C-6.63015625 12.4815625 -6.6353125 13.275625 -6.640625 14.09375 C-6.56439909 16.40642751 -6.56439909 16.40642751 -4.375 18.1875 C-2.16427023 18.43003813 -2.16427023 18.43003813 0.25 18.3125 C1.06726562 18.29445313 1.88453125 18.27640625 2.7265625 18.2578125 C3.66628906 18.22300781 3.66628906 18.22300781 4.625 18.1875 C4.625 18.8475 4.625 19.5075 4.625 20.1875 C2.954375 20.31125 2.954375 20.31125 1.25 20.4375 C-2.43253944 20.76623787 -2.43253944 20.76623787 -3.8125 23.25 C-3.998125 23.889375 -4.18375 24.52875 -4.375 25.1875 C-8.76938168 21.02440157 -11.62784325 18.00393233 -11.8125 11.8125 C-11.74912829 8.32129495 -11.21829291 6.39656567 -9 3.6875 C-5.74431992 0.5868523 -4.35492823 0.0361705 0 0 Z " fill="#8D234E" transform="translate(25.375,21.8125)"/>
<path d="M0 0 C0.66 0.33 1.32 0.66 2 1 C2.12375 1.86625 2.12375 1.86625 2.25 2.75 C2.89698328 5.35111982 2.89698328 5.35111982 5.9375 7.4375 C8.95969417 9.96627471 9.94208408 11.29729429 11 15 C12.98 15 14.96 15 17 15 C17.33 13.35 17.66 11.7 18 10 C18.495 10.99 18.495 10.99 19 12 C19.66 12 20.32 12 21 12 C20 15 20 15 18 16 C14.23530959 16.52705666 10.55699252 16.84897066 7.14453125 14.98828125 C4.61075397 12.90495326 2.81768589 10.72652884 1 8 C-2.09958263 8.69211609 -2.09958263 8.69211609 -3.375 11.0625 C-5 13 -5 13 -7.6875 13.25 C-8.450625 13.1675 -9.21375 13.085 -10 13 C-10 13.66 -10 14.32 -10 15 C-18.35010941 14.64989059 -18.35010941 14.64989059 -21.0625 11.9375 C-21.371875 11.298125 -21.68125 10.65875 -22 10 C-21.319375 10.165 -20.63875 10.33 -19.9375 10.5 C-16.41851024 11.09897698 -13.57066939 11.3662225 -10 11 C-7.81452925 9.16836737 -6.29900761 7.67799259 -4.5625 5.5 C-4.11712891 4.97535156 -3.67175781 4.45070313 -3.21289062 3.91015625 C-2.123748 2.62192304 -1.05927415 1.31290317 0 0 Z " fill="#5C3272" transform="translate(50,44)"/>
<path d="M0 0 C0.66 0.33 1.32 0.66 2 1 C1.50769231 8.50769231 1.50769231 8.50769231 -1.0625 11 C-1.701875 11.33 -2.34125 11.66 -3 12 C-3.66 11.67 -4.32 11.34 -5 11 C-4.67 12.32 -4.34 13.64 -4 15 C-4.66 15 -5.32 15 -6 15 C-6.33 15.66 -6.66 16.32 -7 17 C-7.268125 16.0925 -7.53625 15.185 -7.8125 14.25 C-8.79657659 11.02682554 -8.79657659 11.02682554 -10.6875 8.875 C-12 7 -12 7 -12 4.9375 C-9.48529857 0.06526598 -5.03783334 -0.44780741 0 0 Z " fill="#27B9BE" transform="translate(77,27)"/>
<path d="M0 0 C0.886875 0.4125 1.77375 0.825 2.6875 1.25 C2.0275 4.88 1.3675 8.51 0.6875 12.25 C-4.2625 12.25 -9.2125 12.25 -14.3125 12.25 C-13.6525 10.93 -12.9925 9.61 -12.3125 8.25 C-11.6525 8.25 -10.9925 8.25 -10.3125 8.25 C-10.085625 7.5075 -9.85875 6.765 -9.625 6 C-7.42093155 1.38195182 -5.25299148 -1.18935656 0 0 Z " fill="#F6B82B" transform="translate(81.3125,87.75)"/>
<path d="M0 0 C0 3 0 3 -1 6 C-1.99 6.495 -1.99 6.495 -3 7 C-3.33 7.99 -3.66 8.98 -4 10 C-3.01 9.67 -2.02 9.34 -1 9 C1.1875 9.9375 1.1875 9.9375 3 11 C2.25 15.75 2.25 15.75 0 18 C-3.25 18.5625 -3.25 18.5625 -7 18 C-9.43634076 15.96706207 -11.33328286 13.69849442 -13 11 C-13 10.34 -13 9.68 -13 9 C-12.113125 8.773125 -11.22625 8.54625 -10.3125 8.3125 C-6.53598615 6.81614546 -4.69461792 4.99401991 -2 2 C-1.34 1.34 -0.68 0.68 0 0 Z " fill="#F6A857" transform="translate(38,36)"/>
<path d="M0 0 C4.98034867 1.99213947 7.19458519 3.46007925 11 7 C11 7.66 11 8.32 11 9 C11.639375 9.28875 12.27875 9.5775 12.9375 9.875 C15 11 15 11 16 13 C10.72 13 5.44 13 0 13 C0 8.71 0 4.42 0 0 Z " fill="#E9BC38" transform="translate(0,87)"/>
<path d="M0 0 C0.99386719 0.10183594 1.98773438 0.20367187 3.01171875 0.30859375 C3.77097656 0.39238281 4.53023437 0.47617187 5.3125 0.5625 C4.9825 1.2225 4.6525 1.8825 4.3125 2.5625 C4.08627919 4.26613822 3.90361527 5.97578701 3.75 7.6875 C3.66621094 8.59757812 3.58242187 9.50765625 3.49609375 10.4453125 C3.43550781 11.14398438 3.37492187 11.84265625 3.3125 12.5625 C3.9725 12.8925 4.6325 13.2225 5.3125 13.5625 C0.8575 14.0575 0.8575 14.0575 -3.6875 14.5625 C-3.6875 10.2725 -3.6875 5.9825 -3.6875 1.5625 C-4.3475 1.5625 -5.0075 1.5625 -5.6875 1.5625 C-5.6875 4.5325 -5.6875 7.5025 -5.6875 10.5625 C-6.0175 10.5625 -6.3475 10.5625 -6.6875 10.5625 C-6.6875 7.5925 -6.6875 4.6225 -6.6875 1.5625 C-7.3475 1.2325 -8.0075 0.9025 -8.6875 0.5625 C-5.3763987 -0.54120043 -3.44001051 -0.36423641 0 0 Z " fill="#FEC46B" transform="translate(66.6875,63.4375)"/>
<path d="M0 0 C3.00223256 1.02933688 4.85516523 1.85516523 7.125 4.125 C11.52065188 6.99172949 15.89323906 6.32196741 21 6 C21 6.66 21 7.32 21 8 C17.04 8 13.08 8 9 8 C9 9.65 9 11.3 9 13 C7.02 12.34 5.04 11.68 3 11 C3 10.34 3 9.68 3 9 C1.35 9.33 -0.3 9.66 -2 10 C-2 9.34 -2 8.68 -2 8 C-2.99 7.67 -3.98 7.34 -5 7 C-3.35 4.69 -1.7 2.38 0 0 Z " fill="#F5CD54" transform="translate(49,53)"/>
<path d="M0 0 C9.24 0 18.48 0 28 0 C27 2 27 2 24 4 C23.67 4.66 23.34 5.32 23 6 C14.88861071 5.63379732 7.66964333 3.58459767 0 1 C0 0.67 0 0.34 0 0 Z " fill="#383B8F" transform="translate(61,0)"/>
<path d="M0 0 C0.721875 0.268125 1.44375 0.53625 2.1875 0.8125 C1.75226403 5.74517427 -0.58758871 8.19430684 -3.8125 11.8125 C-4.8025 13.2975 -4.8025 13.2975 -5.8125 14.8125 C-7.1325 13.1625 -8.4525 11.5125 -9.8125 9.8125 C-8.27204671 4.91105772 -5.72485196 -0.3816568 0 0 Z " fill="#E6DECD" transform="translate(62.8125,38.1875)"/>
<path d="M0 0 C-0.69738281 0.67675781 -1.39476563 1.35351562 -2.11328125 2.05078125 C-5.33014908 5.26764908 -8.25215146 8.71515321 -11.1875 12.1875 C-12.24275968 13.43160906 -13.2987192 14.67512494 -14.35546875 15.91796875 C-14.81590576 16.46219482 -15.27634277 17.0064209 -15.75073242 17.56713867 C-16.78615638 18.75472968 -17.88589157 19.88589157 -19 21 C-22.625 21.125 -22.625 21.125 -26 21 C-26.33 20.34 -26.66 19.68 -27 19 C-25.515 18.7834375 -25.515 18.7834375 -24 18.5625 C-16.4029088 16.39848008 -11.58193171 7.66283123 -7.2265625 1.53125 C-4.88563749 -1.39117868 -3.33685535 -1.0010566 0 0 Z " fill="#F9EDE7" transform="translate(59,35)"/>
<path d="M0 0 C9.51724138 -0.55983773 9.51724138 -0.55983773 14 3 C15.8125 4.6875 15.8125 4.6875 17 6 C18.65 4.35 20.3 2.7 22 1 C22.66 1.33 23.32 1.66 24 2 C23.525625 2.433125 23.05125 2.86625 22.5625 3.3125 C20.76313043 5.02309613 20.76313043 5.02309613 20 8 C19.01 8.33 18.02 8.66 17 9 C16.01 10.485 16.01 10.485 15 12 C14.38125 11.071875 13.7625 10.14375 13.125 9.1875 C9.68726647 4.97253976 5.12940047 4.1354401 0 3 C0 2.01 0 1.02 0 0 Z " fill="#6B3B66" transform="translate(45,22)"/>
<path d="M0 0 C0.33 0 0.66 0 1 0 C1.63546488 4.28938792 1.78700206 6.73038344 -0.53515625 10.4765625 C-2.6128353 13.06265242 -4.78232602 15.53332403 -7 18 C-7.63164063 18.79664062 -8.26328125 19.59328125 -8.9140625 20.4140625 C-9.49929687 21.14367187 -10.08453125 21.87328125 -10.6875 22.625 C-11.20699219 23.27726562 -11.72648437 23.92953125 -12.26171875 24.6015625 C-14.57272941 26.4607576 -16.11382022 26.26550887 -19 26 C-19 25.34 -19 24.68 -19 24 C-18.30261719 23.61457031 -17.60523438 23.22914062 -16.88671875 22.83203125 C-13.01964778 20.37782789 -10.62185258 17.2608298 -7.8125 13.6875 C-7.27947266 13.03587891 -6.74644531 12.38425781 -6.19726562 11.71289062 C-3.20446833 7.95213025 -1.19889318 4.74408651 0 0 Z " fill="#E1F1F9" transform="translate(81,30)"/>
<path d="M0 0 C0.33 0 0.66 0 1 0 C1.33 2.97 1.66 5.94 2 9 C1.67 9 1.34 9 1 9 C0.76539062 9.86882813 0.53078125 10.73765625 0.2890625 11.6328125 C-1.15768014 15.41187964 -3.00533291 17.80624713 -5.625 20.875 C-6.85089844 22.32519531 -6.85089844 22.32519531 -8.1015625 23.8046875 C-9.04128906 24.89136719 -9.04128906 24.89136719 -10 26 C-10.99 25.67 -11.98 25.34 -13 25 C-12.41293335 21.94401958 -11.55721096 20.142662 -9.53125 17.79296875 C-9.04269531 17.20580078 -8.55414063 16.61863281 -8.05078125 16.01367188 C-7.02269731 14.80301888 -5.98888417 13.59720627 -4.94921875 12.39648438 C-1.50792714 8.23333872 -0.27747343 5.41766879 0 0 Z " fill="#444176" transform="translate(82,31)"/>
<path d="M0 0 C0.66 0 1.32 0 2 0 C4.71958894 4.07938341 4.389108 7.2195303 4 12 C2.41945289 19.53799392 2.41945289 19.53799392 -1 22 C-1.99 22.33 -2.98 22.66 -4 23 C-5.21869929 25.50447516 -5.21869929 25.50447516 -6 28 C-6.99 28 -7.98 28 -9 28 C-9 28.99 -9 29.98 -9 31 C-10.65 31.66 -12.3 32.32 -14 33 C-10.01045549 27.58993585 -5.87620983 22.31815534 -1.63671875 17.1015625 C0.86741877 13.88622602 1.13681266 12.08471121 1.125 8.0625 C1.12757812 7.18722656 1.13015625 6.31195313 1.1328125 5.41015625 C1.09822003 2.85540944 1.09822003 2.85540944 0 0 Z " fill="#DFC369" transform="translate(84,26)"/>
<path d="M0 0 C0.625 1.875 0.625 1.875 1 4 C0.34 4.66 -0.32 5.32 -1 6 C-1.64767793 8.57061311 -1.64767793 8.57061311 -2 11 C-2.99 11.33 -3.98 11.66 -5 12 C-6.02700444 14.32891096 -6.02700444 14.32891096 -6.6875 17.0625 C-6.93886719 17.98160156 -7.19023438 18.90070313 -7.44921875 19.84765625 C-7.63097656 20.55792969 -7.81273438 21.26820312 -8 22 C-8.66 22 -9.32 22 -10 22 C-10.103125 22.763125 -10.20625 23.52625 -10.3125 24.3125 C-11.04364039 27.17059424 -11.76951913 28.15742885 -14 30 C-14.66 29.67 -15.32 29.34 -16 29 C-13.89770192 25.10315555 -11.79283461 21.20770463 -9.6875 17.3125 C-8.79514648 15.65831055 -8.79514648 15.65831055 -7.88476562 13.97070312 C-7.30791016 12.90400391 -6.73105469 11.83730469 -6.13671875 10.73828125 C-5.60780029 9.75899658 -5.07888184 8.77971191 -4.53393555 7.77075195 C-3.07910455 5.14288677 -1.56208974 2.56526664 0 0 Z " fill="#C2312C" transform="translate(99,70)"/>
<path d="M0 0 C0.33 0 0.66 0 1 0 C1 3.96 1 7.92 1 12 C-3.455 13.485 -3.455 13.485 -8 15 C-6.97301702 12.00463298 -5.93841555 9.92348598 -3.9375 7.4375 C-2.08477332 5.10665031 -1.50930077 3.8520843 -1 1 C-0.67 0.67 -0.34 0.34 0 0 Z " fill="#CB2046" transform="translate(99,74)"/>
<path d="M0 0 C1.98 0.495 1.98 0.495 4 1 C3.01 1.495 3.01 1.495 2 2 C2.94875 1.95875 3.8975 1.9175 4.875 1.875 C8 2 8 2 10 4 C10.125 6.625 10.125 6.625 10 9 C8.35 9.66 6.7 10.32 5 11 C4.34 10.34 3.68 9.68 3 9 C3 7.68 3 6.36 3 5 C2.34 5 1.68 5 1 5 C1 4.34 1 3.68 1 3 C0.34 3 -0.32 3 -1 3 C-0.67 2.01 -0.34 1.02 0 0 Z " fill="#CF1F46" transform="translate(23,27)"/>
<path d="M0 0 C0.66 0 1.32 0 2 0 C2.66 0.66 3.32 1.32 4 2 C4.33 1.34 4.66 0.68 5 0 C6.98 2.64 8.96 5.28 11 8 C10.01 8 9.02 8 8 8 C10.3129482 10.3129482 11.47904875 10.49580975 14.625 11.125 C15.85089844 11.37636719 15.85089844 11.37636719 17.1015625 11.6328125 C17.72804688 11.75398438 18.35453125 11.87515625 19 12 C19 11.34 19 10.68 19 10 C20.32 10.33 21.64 10.66 23 11 C18.95969215 13.69353857 15.74629933 13.78155186 11 13 C6.056617 9.86285309 3.18389621 5.86948832 0 1 C0 0.67 0 0.34 0 0 Z " fill="#82314E" transform="translate(21,47)"/>
<path d="M0 0 C4.48599743 1.25190626 7.59347128 2.79385533 11 6 C11 6.66 11 7.32 11 8 C7.37 8 3.74 8 0 8 C0 5.36 0 2.72 0 0 Z " fill="#58C3C5" transform="translate(0,92)"/>
<path d="M0 0 C0 0.66 0 1.32 0 2 C-4.62 2.66 -9.24 3.32 -14 4 C-13.67 7.3 -13.34 10.6 -13 14 C-12.34 14 -11.68 14 -11 14 C-10.67 13.34 -10.34 12.68 -10 12 C-10 12.66 -10 13.32 -10 14 C-9.01 14.33 -8.02 14.66 -7 15 C-9.31 15 -11.62 15 -14 15 C-14.5345256 13.75579353 -15.05208611 12.50429064 -15.5625 11.25 C-15.85253906 10.55390625 -16.14257812 9.8578125 -16.44140625 9.140625 C-17.09256932 6.64525883 -16.95815776 5.38026558 -16 3 C-10.92689117 -0.64223198 -5.97187198 -0.3186572 0 0 Z " fill="#FAD44A" transform="translate(42,61)"/>
<path d="M0 0 C3.0625 2.0625 3.0625 2.0625 5 4 C5.66 3.01 6.32 2.02 7 1 C9.475 1.495 9.475 1.495 12 2 C10.35 3.98 8.7 5.96 7 8 C5.53515625 6.73046875 4.0703125 5.4609375 2.60546875 4.19140625 C-0.67601389 1.75624273 -3.76224314 1.89132051 -7.6875 1.9375 C-8.68136719 1.94652344 -9.67523437 1.95554687 -10.69921875 1.96484375 C-11.45847656 1.97644531 -12.21773437 1.98804688 -13 2 C-13 1.34 -13 0.68 -13 0 C-8.53352633 -1.32677563 -4.51219109 -1.07586051 0 0 Z " fill="#ECBB5A" transform="translate(32,21)"/>
<path d="M0 0 C1.25541557 3.76624671 0.37061958 5.37188934 -1 9 C-2.65 9 -4.3 9 -6 9 C-6 9.66 -6 10.32 -6 11 C-14.35010941 10.64989059 -14.35010941 10.64989059 -17.0625 7.9375 C-17.5265625 6.9784375 -17.5265625 6.9784375 -18 6 C-17.319375 6.165 -16.63875 6.33 -15.9375 6.5 C-12.35122956 7.11042901 -9.63347074 7.50996081 -6 7 C-3.62827071 4.91953571 -1.79885154 2.58296631 0 0 Z " fill="#71367A" transform="translate(46,48)"/>
<path d="M0 0 C0.66 0 1.32 0 2 0 C2 1.65 2 3.3 2 5 C2.66 5 3.32 5 4 5 C4 3.35 4 1.7 4 0 C5.32 0 6.64 0 8 0 C9.2380014 3.57644848 8.74926071 6.33694766 8 10 C6.02 10 4.04 10 2 10 C1.34 6.7 0.68 3.4 0 0 Z " fill="#519052" transform="translate(27,65)"/>
<path d="M0 0 C4.1984347 1.01073428 5.70886294 2.46078484 8.375 5.8125 C9.6875 8.125 9.6875 8.125 10.375 9.8125 C8.4375 9.5 8.4375 9.5 6.375 8.8125 C6.045 7.8225 5.715 6.8325 5.375 5.8125 C4.385 5.4825 3.395 5.1525 2.375 4.8125 C2.375 3.8225 2.375 2.8325 2.375 1.8125 C-1.71463819 4.09788605 -5.08862104 6.76956926 -8.625 9.8125 C-9.285 9.4825 -9.945 9.1525 -10.625 8.8125 C-4.97166237 1.11433812 -4.97166237 1.11433812 0 0 Z " fill="#EAA56E" transform="translate(49.625,25.1875)"/>
<path d="M0 0 C3.34404849 0.28828004 5.63100878 0.86086789 8.625 2.3125 C8.625 3.3025 8.625 4.2925 8.625 5.3125 C9.285 5.6425 9.945 5.9725 10.625 6.3125 C10.625 8.2925 10.625 10.2725 10.625 12.3125 C9.635 12.8075 9.635 12.8075 8.625 13.3125 C8.7075 12.57 8.79 11.8275 8.875 11.0625 C8.81758814 8.27767529 8.81758814 8.27767529 7.3125 6.0625 C3.09611634 3.31694785 -1.43831603 3.48273048 -6.375 3.3125 C-4.092893 0.69153468 -3.67384163 0.34017052 0 0 Z " fill="#8D1E68" transform="translate(25.375,22.6875)"/>
<path d="M0 0 C1.65 0 3.3 0 5 0 C5 4.29 5 8.58 5 13 C3.68 13.33 2.36 13.66 1 14 C1.33 13.01 1.66 12.02 2 11 C1.34 10.67 0.68 10.34 0 10 C0 6.7 0 3.4 0 0 Z " fill="#BC511F" transform="translate(58,65)"/>
<path d="M0 0 C0.66 0.66 1.32 1.32 2 2 C1.82282743 4.74617488 1.20187301 5.79812699 -0.75 7.75 C-3.37943983 9.21079991 -5.0374441 9.24687966 -8 9 C-7.67 10.65 -7.34 12.3 -7 14 C-7.99 13.67 -8.98 13.34 -10 13 C-10 12.34 -10 11.68 -10 11 C-10.66 10.67 -11.32 10.34 -12 10 C-11.34 9.01 -10.68 8.02 -10 7 C-8.845 6.855625 -7.69 6.71125 -6.5 6.5625 C-4.7675 6.2840625 -4.7675 6.2840625 -3 6 C-1.53195637 4.14853436 -1.53195637 4.14853436 -1 2 C-0.67 1.34 -0.34 0.68 0 0 Z " fill="#84255E" transform="translate(33,36)"/>
<path d="M0 0 C2 1.375 2 1.375 4 4 C4.88016342 9.01862409 4.76935434 12.79788385 2 17.125 C1.34 17.74375 0.68 18.3625 0 19 C-0.042721 17.33388095 -0.04063832 15.66617115 0 14 C0.33 13.67 0.66 13.34 1 13 C0.70881428 10.918548 0.70881428 10.918548 0.125 8.5625 C-0.05804688 7.75941406 -0.24109375 6.95632812 -0.4296875 6.12890625 C-0.93216178 3.9685643 -0.93216178 3.9685643 -2 2 C-1.34 2 -0.68 2 0 2 C0 1.34 0 0.68 0 0 Z " fill="#344077" transform="translate(82,25)"/>
<path d="M0 0 C0 3.11589064 -0.48858354 5.93150124 -1 9 C-1 9.99 -1 10.98 -1 12 C0.98 12 2.96 12 5 12 C4.67 12.99 4.34 13.98 4 15 C1.1875 15.25 1.1875 15.25 -2 15 C-4.25336459 12.97197187 -4.87894524 11.57501012 -5.5 8.625 C-4.75862839 4.73279905 -2.68029094 2.88131276 0 0 Z " fill="#533C83" transform="translate(63,44)"/>
<path d="M0 0 C0.66 0 1.32 0 2 0 C2.309375 1.134375 2.61875 2.26875 2.9375 3.4375 C3.62924531 6.78775099 3.62924531 6.78775099 5 8 C5.04080783 9.99958364 5.04254356 12.00045254 5 14 C4.34 13.67 3.68 13.34 3 13 C2.375 10.9375 2.375 10.9375 2 9 C-0.31 8.34 -2.62 7.68 -5 7 C-4.54625 6.5875 -4.0925 6.175 -3.625 5.75 C-1.94049626 3.93591905 -1.00734029 2.24714373 0 0 Z " fill="#4A3379" transform="translate(62,30)"/>
<path d="M0 0 C0.66 0 1.32 0 2 0 C0.45614871 4.14032846 -1.51028938 7.93553053 -3.625 11.8125 C-4.11226563 12.7087207 -4.11226563 12.7087207 -4.609375 13.62304688 C-5.40379151 15.08337135 -6.20155376 16.54187491 -7 18 C-7.33 18 -7.66 18 -8 18 C-8.28999491 13.07008655 -8.19703098 9.90748231 -5 6 C-4.01 6 -3.02 6 -2 6 C-1.34 4.02 -0.68 2.04 0 0 Z " fill="#FAA942" transform="translate(97,70)"/>
<path d="M0 0 C2.0625 0.4375 2.0625 0.4375 4 1 C4 2.65 4 4.3 4 6 C3.01 6 2.02 6 1 6 C1.99 6.33 2.98 6.66 4 7 C3.67 8.32 3.34 9.64 3 11 C1.68 10.67 0.36 10.34 -1 10 C-1.02689216 8.52093108 -1.04634621 7.04172517 -1.0625 5.5625 C-1.07410156 4.73878906 -1.08570313 3.91507812 -1.09765625 3.06640625 C-1 1 -1 1 0 0 Z " fill="#C2562A" transform="translate(65,65)"/>
<path d="M0 0 C0.33 0.99 0.66 1.98 1 3 C1.99 3 2.98 3 4 3 C4 6.3 4 9.6 4 13 C2.68 13 1.36 13 0 13 C0 8.71 0 4.42 0 0 Z " fill="#5B9F6A" transform="translate(44,62)"/>
<path d="M0 0 C3.59426941 2.69570205 6.21539212 5.49678364 9 9 C11.12603185 10.76323505 11.12603185 10.76323505 13 12 C12.01 12.66 11.02 13.32 10 14 C9.01 13.67 8.02 13.34 7 13 C7.66 13 8.32 13 9 13 C7.37633534 9.75267068 4.24612161 9.29844864 1 8 C1.020625 7.236875 1.04125 6.47375 1.0625 5.6875 C1.12942841 2.89814214 1.12942841 2.89814214 0 0 Z " fill="#FBCA59" transform="translate(21,49)"/>
<path d="M0 0 C0.66 0.33 1.32 0.66 2 1 C1.67 1.66 1.34 2.32 1 3 C0.39985931 8.77058356 0.89640604 12.95665982 4 18 C2.02 18 0.04 18 -2 18 C-2.054138 15.75026553 -2.09285491 13.50015617 -2.125 11.25 C-2.14820313 9.99703125 -2.17140625 8.7440625 -2.1953125 7.453125 C-2.01537302 4.27179508 -1.68998582 2.63478104 0 0 Z " fill="#F1B75A" transform="translate(14,26)"/>
<path d="M0 0 C0.33 0 0.66 0 1 0 C0.94779297 0.93972656 0.94779297 0.93972656 0.89453125 1.8984375 C0.86746094 2.71570313 0.84039063 3.53296875 0.8125 4.375 C0.77769531 5.18710937 0.74289063 5.99921875 0.70703125 6.8359375 C0.80371094 7.55007812 0.90039062 8.26421875 1 9 C3.73354949 11.28368965 3.73354949 11.28368965 6.375 10.75 C9.00746736 9.99786647 11.48467129 9.07799802 14 8 C12.25 11.875 12.25 11.875 10 13 C2.66042111 13.46600501 2.66042111 13.46600501 0.26171875 11.7734375 C-1.35709464 9.4980775 -1.34013446 8.14212792 -1.25 5.375 C-1.23453125 4.57835937 -1.2190625 3.78171875 -1.203125 2.9609375 C-1 1 -1 1 0 0 Z " fill="#BD2350" transform="translate(19,28)"/>
<path d="M0 0 C7.98676972 1.51473219 15.40122878 4.16802552 23 7 C20 9 20 9 17.8125 8.625 C17.214375 8.41875 16.61625 8.2125 16 8 C16 7.34 16 6.68 16 6 C15.43152344 5.89042969 14.86304687 5.78085938 14.27734375 5.66796875 C9.17683242 4.62061834 4.715558 3.20728247 0 1 C0 0.67 0 0.34 0 0 Z " fill="#E1C871" transform="translate(61,1)"/>
<path d="M0 0 C4.95 0 9.9 0 15 0 C15 1.65 15 3.3 15 5 C13.06077578 4.54901762 11.12366406 4.08894441 9.1875 3.625 C8.10855469 3.36976562 7.02960938 3.11453125 5.91796875 2.8515625 C3 2 3 2 0 0 Z " fill="#424477" transform="translate(61,0)"/>
<path d="M0 0 C3.75721183 0.04201355 4.64129393 0.29890575 7.875 2.5625 C9.75 5.375 9.75 5.375 9.5625 8.1875 C9.294375 8.909375 9.02625 9.63125 8.75 10.375 C8.42 10.375 8.09 10.375 7.75 10.375 C7.09 8.395 6.43 6.415 5.75 4.375 C4.326875 4.436875 4.326875 4.436875 2.875 4.5 C-0.25 4.375 -0.25 4.375 -2.25 2.375 C-3.24 2.045 -4.23 1.715 -5.25 1.375 C-3.69049449 -0.18450551 -2.16122869 0.09303302 0 0 Z " fill="#BE2351" transform="translate(25.25,25.625)"/>
<path d="M0 0 C0.33 0 0.66 0 1 0 C1.57934159 5.40718817 1.34220083 8.10649656 -2 12.5 C-2.98191175 13.68193081 -3.97612198 14.85423174 -5 16 C-5.66 14.68 -6.32 13.36 -7 12 C-6.57847656 11.46890625 -6.15695313 10.9378125 -5.72265625 10.390625 C-5.17480469 9.68421875 -4.62695312 8.9778125 -4.0625 8.25 C-3.51722656 7.55390625 -2.97195312 6.8578125 -2.41015625 6.140625 C-1.02574346 4.03907872 -0.43713013 2.45678201 0 0 Z " fill="#DFEAF2" transform="translate(81,30)"/>
<path d="M0 0 C-0.33 0.66 -0.66 1.32 -1 2 C0.32 2.99 1.64 3.98 3 5 C2.67 5.66 2.34 6.32 2 7 C1.38125 6.505 0.7625 6.01 0.125 5.5 C-4.26029741 3.39505724 -8.21713261 3.74924773 -13 4 C-13 3.34 -13 2.68 -13 2 C-11.39935157 1.46845258 -9.79431126 0.95011647 -8.1875 0.4375 C-7.29417969 0.14746094 -6.40085937 -0.14257812 -5.48046875 -0.44140625 C-3 -1 -3 -1 0 0 Z " fill="#E2C25F" transform="translate(81,19)"/>
<path d="M0 0 C1.32 0.33 2.64 0.66 4 1 C4 2.65 4 4.3 4 6 C3.01 6 2.02 6 1 6 C1.99 6.33 2.98 6.66 4 7 C3.67 8.32 3.34 9.64 3 11 C2.01 11 1.02 11 0 11 C0 7.37 0 3.74 0 0 Z " fill="#509A65" transform="translate(38,65)"/>
<path d="M0 0 C1.32 0.66 2.64 1.32 4 2 C3.04578192 3.14926266 2.08647955 4.29430541 1.125 5.4375 C0.59132813 6.07558594 0.05765625 6.71367187 -0.4921875 7.37109375 C-2 9 -2 9 -4 10 C-4.8125 7.8125 -4.8125 7.8125 -5 5 C-2.5625 2.1875 -2.5625 2.1875 0 0 Z " fill="#702C58" transform="translate(44,23)"/>
<path d="M0 0 C0.99 0.33 1.98 0.66 3 1 C2.34 1.66 1.68 2.32 1 3 C0.53993654 5.20250992 0.53993654 5.20250992 0.375 7.625 C0.30023437 8.44226562 0.22546875 9.25953125 0.1484375 10.1015625 C0.09945313 10.72804688 0.05046875 11.35453125 0 12 C-0.99 12 -1.98 12 -3 12 C-3.36923077 4.61538462 -3.36923077 4.61538462 -1.5 1.5 C-1.005 1.005 -0.51 0.51 0 0 Z " fill="#9B1861" transform="translate(18,26)"/>
<path d="M0 0 C1.41623216 -0.05447047 2.83308191 -0.09300508 4.25 -0.125 C5.03890625 -0.14820312 5.8278125 -0.17140625 6.640625 -0.1953125 C9.20731941 0.0171622 10.7916067 0.71345895 13 2 C13 2.33 13 2.66 13 3 C8.38 3 3.76 3 -1 3 C-0.67 2.01 -0.34 1.02 0 0 Z " fill="#403C79" transform="translate(69,22)"/>
<path d="M0 0 C1.32 0 2.64 0 4 0 C4 3.3 4 6.6 4 10 C2.68 10 1.36 10 0 10 C0 8.35 0 6.7 0 5 C0.99 5 1.98 5 3 5 C3 4.01 3 3.02 3 2 C2.01 2.33 1.02 2.66 0 3 C0 2.01 0 1.02 0 0 Z " fill="#B64C1B" transform="translate(53,65)"/>
<path d="M0 0 C0.33 0 0.66 0 1 0 C1.33 2.97 1.66 5.94 2 9 C1.67 9 1.34 9 1 9 C0.34 10.98 -0.32 12.96 -1 15 C-1.99 15 -2.98 15 -4 15 C-4.33 14.01 -4.66 13.02 -5 12 C-4.071875 10.88625 -4.071875 10.88625 -3.125 9.75 C-0.58064178 6.45730112 -0.32084411 4.09076235 0 0 Z " fill="#48518A" transform="translate(82,31)"/>
<path d="M0 0 C0.66 0.33 1.32 0.66 2 1 C1.2884375 1.6496875 1.2884375 1.6496875 0.5625 2.3125 C-1.23686957 4.02309613 -1.23686957 4.02309613 -2 7 C-2.99 7.33 -3.98 7.66 -5 8 C-5.99 9.485 -5.99 9.485 -7 11 C-7.99 9.68 -8.98 8.36 -10 7 C-8.6875 5.5 -8.6875 5.5 -7 4 C-6.01 4 -5.02 4 -4 4 C-1.81222534 2.0624994 -1.81222534 2.0624994 0 0 Z " fill="#5D3E62" transform="translate(67,23)"/>
<path d="M0 0 C0.33 0 0.66 0 1 0 C1.33 2.97 1.66 5.94 2 9 C0.68 9.33 -0.64 9.66 -2 10 C-2 9.34 -2 8.68 -2 8 C-2.99 7.67 -3.98 7.34 -5 7 C-4.19152271 5.83054208 -3.37810888 4.66449539 -2.5625 3.5 C-2.11003906 2.8503125 -1.65757813 2.200625 -1.19140625 1.53125 C-0.79824219 1.0259375 -0.40507813 0.520625 0 0 Z " fill="#F9CF43" transform="translate(49,53)"/>
<path d="M0 0 C1.65 0 3.3 0 5 0 C3.02 3.63 1.04 7.26 -1 11 C-2.16952466 7.49142603 -1.76017128 5.57280503 -1 2 C-0.67 1.34 -0.34 0.68 0 0 Z " fill="#F8AF3B" transform="translate(84,89)"/>
<path d="M0 0 C2.97 0.495 2.97 0.495 6 1 C5.34 2.65 4.68 4.3 4 6 C2.35 5.67 0.7 5.34 -1 5 C-0.67 3.35 -0.34 1.7 0 0 Z " fill="#F7A94A" transform="translate(30,47)"/>
<path d="M0 0 C0.66 0 1.32 0 2 0 C2.66 3.3 3.32 6.6 4 10 C4.66 10 5.32 10 6 10 C6.33 9.34 6.66 8.68 7 8 C7 8.66 7 9.32 7 10 C7.99 10.33 8.98 10.66 10 11 C7.69 11 5.38 11 3 11 C2.49384702 9.73160474 1.99530901 8.46016898 1.5 7.1875 C1.2215625 6.47980469 0.943125 5.77210937 0.65625 5.04296875 C0 3 0 3 0 0 Z " fill="#C2CE65" transform="translate(25,65)"/>
<path d="M0 0 C0.99 0.33 1.98 0.66 3 1 C2.52797514 5.24822374 0.03344482 7.19989709 -3 10 C-2.49287967 6.28111761 -1.88391785 3.26545761 0 0 Z " fill="#3C4187" transform="translate(64,43)"/>
<path d="M0 0 C0.33 0.66 0.66 1.32 1 2 C1.66 2 2.32 2 3 2 C2 5 2 5 0 6 C-1.49649362 6.12005453 -2.99874793 6.17531451 -4.5 6.1875 C-5.2940625 6.20167969 -6.088125 6.21585938 -6.90625 6.23046875 C-9 6 -9 6 -11 4 C-7.7 4.33 -4.4 4.66 -1 5 C-0.67 3.35 -0.34 1.7 0 0 Z " fill="#584460" transform="translate(68,54)"/>
<path d="M0 0 C2.97 0 5.94 0 9 0 C9 0.99 9 1.98 9 3 C6.03 3 3.06 3 0 3 C0 2.01 0 1.02 0 0 Z " fill="#633167" transform="translate(45,22)"/>
<path d="M0 0 C0.66 0 1.32 0 2 0 C0.14285714 7.57142857 0.14285714 7.57142857 -3 10 C-3.66 9.67 -4.32 9.34 -5 9 C-3.35 6.03 -1.7 3.06 0 0 Z " fill="#B62B2A" transform="translate(88,90)"/>
<path d="M0 0 C4.35535069 1.16142685 6.64619703 2.07699505 9 6 C6.69 6 4.38 6 2 6 C1.34 4.02 0.68 2.04 0 0 Z " fill="#78BEA0" transform="translate(0,92)"/>
<path d="M0 0 C0.66 0 1.32 0 2 0 C1.67 3.63 1.34 7.26 1 11 C0.34 11 -0.32 11 -1 11 C-1.02688151 9.35425434 -1.04634123 7.70838587 -1.0625 6.0625 C-1.07410156 5.14597656 -1.08570312 4.22945313 -1.09765625 3.28515625 C-1 1 -1 1 0 0 Z " fill="#C85B27" transform="translate(71,65)"/>
<path d="M0 0 C0.66 0 1.32 0 2 0 C2 2.97 2 5.94 2 9 C1.01 9 0.02 9 -1 9 C-0.67 6.03 -0.34 3.06 0 0 Z " fill="#AFCD70" transform="translate(36,66)"/>
<path d="M0 0 C1.2380014 3.57644848 0.74926071 6.33694766 0 10 C-0.99 10 -1.98 10 -3 10 C-3.33 8.68 -3.66 7.36 -4 6 C-3.01 6 -2.02 6 -1 6 C-1.020625 5.195625 -1.04125 4.39125 -1.0625 3.5625 C-1 1 -1 1 0 0 Z " fill="#499A6A" transform="translate(35,65)"/>
<path d="M0 0 C0.33 0.99 0.66 1.98 1 3 C-0.9375 5.6875 -0.9375 5.6875 -3 8 C-3.66 7.67 -4.32 7.34 -5 7 C-3.75023244 3.34683329 -3.32901247 2.21934164 0 0 Z " fill="#F0D15D" transform="translate(86,40)"/>
<path d="M0 0 C1.9375 0.375 1.9375 0.375 4 1 C4.33 1.66 4.66 2.32 5 3 C5.33 2.34 5.66 1.68 6 1 C8.5625 0.375 8.5625 0.375 11 0 C9.35 1.98 7.7 3.96 6 6 C5.01 5.34 4.02 4.68 3 4 C3 3.34 3 2.68 3 2 C2.01 1.67 1.02 1.34 0 1 C0 0.67 0 0.34 0 0 Z " fill="#E7C570" transform="translate(56,23)"/>
<path d="M0 0 C0.99 0.99 1.98 1.98 3 3 C2.67 3.99 2.34 4.98 2 6 C1.34 6 0.68 6 0 6 C0 7.98 0 9.96 0 12 C-0.33 12 -0.66 12 -1 12 C-1.02712066 10.56260487 -1.04645067 9.12506137 -1.0625 7.6875 C-1.07410156 6.88699219 -1.08570312 6.08648437 -1.09765625 5.26171875 C-1 3 -1 3 0 0 Z " fill="#FECD53" transform="translate(73,64)"/>
<path d="M0 0 C2.97 0 5.94 0 9 0 C9 0.99 9 1.98 9 3 C6.69 3 4.38 3 2 3 C2 2.34 2 1.68 2 1 C1.34 0.67 0.68 0.34 0 0 Z " fill="#E1D85D" transform="translate(34,63)"/>
<path d="M0 0 C0.33 0.66 0.66 1.32 1 2 C0.67 2.99 0.34 3.98 0 5 C-2.31 5 -4.62 5 -7 5 C-7.33 4.34 -7.66 3.68 -8 3 C-6.865625 2.690625 -5.73125 2.38125 -4.5625 2.0625 C-1.21224901 1.37075469 -1.21224901 1.37075469 0 0 Z " fill="#F8E7DE" transform="translate(40,51)"/>
<path d="M0 0 C1.98 0 3.96 0 6 0 C5.01 1.485 5.01 1.485 4 3 C0.375 3.1875 0.375 3.1875 -3 3 C-2.67 2.34 -2.34 1.68 -2 1 C-1.34 1.33 -0.68 1.66 0 2 C0 1.34 0 0.68 0 0 Z " fill="#F0B367" transform="translate(34,51)"/>
<path d="M0 0 C-1.29299694 2.88437779 -2.65941363 4.87219421 -5 7 C-5.33 5.35 -5.66 3.7 -6 2 C-2.25 0 -2.25 0 0 0 Z " fill="#EEB25C" transform="translate(47,42)"/>
<path d="M0 0 C3.3 0.99 6.6 1.98 10 3 C10 3.33 10 3.66 10 4 C6.6875 4.25 6.6875 4.25 3 4 C2.01 2.68 1.02 1.36 0 0 Z " fill="#73246F" transform="translate(28,54)"/>
<path d="M0 0 C2.475 0.495 2.475 0.495 5 1 C4.67 2.65 4.34 4.3 4 6 C2.62437146 4.71034824 1.29233607 3.37310707 0 2 C0 1.34 0 0.68 0 0 Z " fill="#ED9B67" transform="translate(25,45)"/>
<path d="M0 0 C1.485 0.99 1.485 0.99 3 2 C2.67 2.99 2.34 3.98 2 5 C2.66 5 3.32 5 4 5 C3.67 5.99 3.34 6.98 3 8 C0.9375 5.6875 0.9375 5.6875 -1 3 C-0.67 2.01 -0.34 1.02 0 0 Z " fill="#E6D6D8" transform="translate(54,45)"/>
<path d="M0 0 C4.455 0.99 4.455 0.99 9 2 C6 4 6 4 3.8125 3.625 C3.214375 3.41875 2.61625 3.2125 2 3 C2 2.34 2 1.68 2 1 C1.34 0.67 0.68 0.34 0 0 Z " fill="#F0CF66" transform="translate(75,6)"/>
<path d="M0 0 C1.2065625 0.0309375 1.2065625 0.0309375 2.4375 0.0625 C2.1075 0.7225 1.7775 1.3825 1.4375 2.0625 C0.4475 2.3925 -0.5425 2.7225 -1.5625 3.0625 C-3.22960346 4.56235609 -3.22960346 4.56235609 -4.5625 6.0625 C-3.48963568 0.08511307 -3.48963568 0.08511307 0 0 Z " fill="#6B325C" transform="translate(49.5625,49.9375)"/>
<path d="M0 0 C0 0.99 0 1.98 0 3 C-3 5 -3 5 -6 5 C-6 4.34 -6 3.68 -6 3 C-4.02 2.01 -2.04 1.02 0 0 Z " fill="#B62259" transform="translate(32,36)"/>
<path d="M0 0 C0.33 0 0.66 0 1 0 C1.1953125 6.0546875 1.1953125 6.0546875 1 8 C0.34 8.66 -0.32 9.32 -1 10 C-1 9.34 -1 8.68 -1 8 C-1.66 7.67 -2.32 7.34 -3 7 C-2.01 4.69 -1.02 2.38 0 0 Z " fill="#D1EDF5" transform="translate(81,30)"/>
<path d="M0 0 C0.66 0 1.32 0 2 0 C2 1.98 2 3.96 2 6 C0.68 5.34 -0.64 4.68 -2 4 C-1.34 2.68 -0.68 1.36 0 0 Z " fill="#4B368A" transform="translate(62,30)"/>
<path d="M0 0 C1.98 0.99 1.98 0.99 4 2 C5.66140763 2.67966676 7.32700041 3.34938905 9 4 C8.01 4.99 7.02 5.98 6 7 C4.02 4.69 2.04 2.38 0 0 Z " fill="#F6C473" transform="translate(32,22)"/>
</svg>
